<?xml version="1.0" encoding="utf-8" standalone="no"?>
<!DOCTYPE svg PUBLIC "-//W3C//DTD SVG 1.1//EN"
  "http://www.w3.org/Graphics/SVG/1.1/DTD/svg11.dtd">
<!-- Created with matplotlib (https://matplotlib.org/) -->
<svg height="504pt" version="1.1" viewBox="0 0 1080 504" width="1080pt" xmlns="http://www.w3.org/2000/svg" xmlns:xlink="http://www.w3.org/1999/xlink">
 <defs>
  <style type="text/css">
*{stroke-linecap:butt;stroke-linejoin:round;}
  </style>
 </defs>
 <g id="figure_1">
  <g id="patch_1">
   <path d="M 0 504 
L 1080 504 
L 1080 0 
L 0 0 
z
" style="fill:#ffffff;"/>
  </g>
  <g id="axes_1">
   <g id="patch_2">
    <path d="M 24.1625 476.521875 
L 1069.2 476.521875 
L 1069.2 10.8 
L 24.1625 10.8 
z
" style="fill:#ffffff;"/>
   </g>
   <g id="PathCollection_1">
    <path clip-path="url(#pdc15675605)" d="M 69.168765 457.524259 
L 74.168765 452.524259 
M 69.168765 452.524259 
L 74.168765 457.524259 
" style="fill:#f0f921;stroke:#f0f921;stroke-width:1.5;"/>
    <path clip-path="url(#pdc15675605)" d="M 79.771722 457.524259 
L 84.771722 452.524259 
M 79.771722 452.524259 
L 84.771722 457.524259 
" style="fill:#f0f921;stroke:#f0f921;stroke-width:1.5;"/>
    <path clip-path="url(#pdc15675605)" d="M 98.857045 421.156362 
L 103.857045 416.156362 
M 98.857045 416.156362 
L 103.857045 421.156362 
" style="fill:#f0f921;stroke:#f0f921;stroke-width:1.5;"/>
    <path clip-path="url(#pdc15675605)" d="M 100.977637 421.163489 
L 105.977637 416.163489 
M 100.977637 416.163489 
L 105.977637 421.163489 
" style="fill:#f0f921;stroke:#f0f921;stroke-width:1.5;"/>
    <path clip-path="url(#pdc15675605)" d="M 103.098228 419.331455 
L 108.098228 414.331455 
M 103.098228 414.331455 
L 108.098228 419.331455 
" style="fill:#f0f921;stroke:#f0f921;stroke-width:1.5;"/>
    <path clip-path="url(#pdc15675605)" d="M 105.21882 371.23331 
L 110.21882 366.23331 
M 105.21882 366.23331 
L 110.21882 371.23331 
" style="fill:#f0f921;stroke:#f0f921;stroke-width:1.5;"/>
    <path clip-path="url(#pdc15675605)" d="M 115.821777 428.775046 
L 120.821777 423.775046 
M 115.821777 423.775046 
L 120.821777 428.775046 
" style="fill:#f0f921;stroke:#f0f921;stroke-width:1.5;"/>
    <path clip-path="url(#pdc15675605)" d="M 117.942368 366.418955 
L 122.942368 361.418955 
M 117.942368 361.418955 
L 122.942368 366.418955 
" style="fill:#f0f921;stroke:#f0f921;stroke-width:1.5;"/>
    <path clip-path="url(#pdc15675605)" d="M 120.06296 380.818684 
L 125.06296 375.818684 
M 120.06296 375.818684 
L 125.06296 380.818684 
" style="fill:#f0f921;stroke:#f0f921;stroke-width:1.5;"/>
    <path clip-path="url(#pdc15675605)" d="M 122.183551 428.958593 
L 127.183551 423.958593 
M 122.183551 423.958593 
L 127.183551 428.958593 
" style="fill:#f0f921;stroke:#f0f921;stroke-width:1.5;"/>
    <path clip-path="url(#pdc15675605)" d="M 124.304143 377.236814 
L 129.304143 372.236814 
M 124.304143 372.236814 
L 129.304143 377.236814 
" style="fill:#f0f921;stroke:#f0f921;stroke-width:1.5;"/>
    <path clip-path="url(#pdc15675605)" d="M 128.545326 339.195792 
L 133.545326 334.195792 
M 128.545326 334.195792 
L 133.545326 339.195792 
" style="fill:#f0f921;stroke:#f0f921;stroke-width:1.5;"/>
    <path clip-path="url(#pdc15675605)" d="M 130.665917 352.236529 
L 135.665917 347.236529 
M 130.665917 347.236529 
L 135.665917 352.236529 
" style="fill:#f0f921;stroke:#f0f921;stroke-width:1.5;"/>
    <path clip-path="url(#pdc15675605)" d="M 132.786508 388.872154 
L 137.786508 383.872154 
M 132.786508 383.872154 
L 137.786508 388.872154 
" style="fill:#f0f921;stroke:#f0f921;stroke-width:1.5;"/>
    <path clip-path="url(#pdc15675605)" d="M 134.9071 418.901116 
L 139.9071 413.901116 
M 134.9071 413.901116 
L 139.9071 418.901116 
" style="fill:#f0f921;stroke:#f0f921;stroke-width:1.5;"/>
    <path clip-path="url(#pdc15675605)" d="M 137.027691 422.467147 
L 142.027691 417.467147 
M 137.027691 417.467147 
L 142.027691 422.467147 
" style="fill:#f0f921;stroke:#f0f921;stroke-width:1.5;"/>
    <path clip-path="url(#pdc15675605)" d="M 139.148283 328.622526 
L 144.148283 323.622526 
M 139.148283 323.622526 
L 144.148283 328.622526 
" style="fill:#f0f921;stroke:#f0f921;stroke-width:1.5;"/>
    <path clip-path="url(#pdc15675605)" d="M 141.268874 408.04864 
L 146.268874 403.04864 
M 141.268874 403.04864 
L 146.268874 408.04864 
" style="fill:#f0f921;stroke:#f0f921;stroke-width:1.5;"/>
    <path clip-path="url(#pdc15675605)" d="M 143.389466 403.042572 
L 148.389466 398.042572 
M 143.389466 398.042572 
L 148.389466 403.042572 
" style="fill:#f0f921;stroke:#f0f921;stroke-width:1.5;"/>
    <path clip-path="url(#pdc15675605)" d="M 145.510057 402.003258 
L 150.510057 397.003258 
M 145.510057 397.003258 
L 150.510057 402.003258 
" style="fill:#f0f921;stroke:#f0f921;stroke-width:1.5;"/>
    <path clip-path="url(#pdc15675605)" d="M 147.630649 392.084282 
L 152.630649 387.084282 
M 147.630649 387.084282 
L 152.630649 392.084282 
" style="fill:#f0f921;stroke:#f0f921;stroke-width:1.5;"/>
    <path clip-path="url(#pdc15675605)" d="M 149.75124 368.533527 
L 154.75124 363.533527 
M 149.75124 363.533527 
L 154.75124 368.533527 
" style="fill:#f0f921;stroke:#f0f921;stroke-width:1.5;"/>
    <path clip-path="url(#pdc15675605)" d="M 151.871832 424.469729 
L 156.871832 419.469729 
M 151.871832 419.469729 
L 156.871832 424.469729 
" style="fill:#f0f921;stroke:#f0f921;stroke-width:1.5;"/>
    <path clip-path="url(#pdc15675605)" d="M 153.992423 429.561203 
L 158.992423 424.561203 
M 153.992423 424.561203 
L 158.992423 429.561203 
" style="fill:#f0f921;stroke:#f0f921;stroke-width:1.5;"/>
    <path clip-path="url(#pdc15675605)" d="M 156.113014 435.451201 
L 161.113014 430.451201 
M 156.113014 430.451201 
L 161.113014 435.451201 
" style="fill:#f0f921;stroke:#f0f921;stroke-width:1.5;"/>
    <path clip-path="url(#pdc15675605)" d="M 158.233606 401.799809 
L 163.233606 396.799809 
M 158.233606 396.799809 
L 163.233606 401.799809 
" style="fill:#f0f921;stroke:#f0f921;stroke-width:1.5;"/>
    <path clip-path="url(#pdc15675605)" d="M 160.354197 387.745172 
L 165.354197 382.745172 
M 160.354197 382.745172 
L 165.354197 387.745172 
" style="fill:#f0f921;stroke:#f0f921;stroke-width:1.5;"/>
    <path clip-path="url(#pdc15675605)" d="M 162.474789 426.068206 
L 167.474789 421.068206 
M 162.474789 421.068206 
L 167.474789 426.068206 
" style="fill:#f0f921;stroke:#f0f921;stroke-width:1.5;"/>
    <path clip-path="url(#pdc15675605)" d="M 164.59538 379.009951 
L 169.59538 374.009951 
M 164.59538 374.009951 
L 169.59538 379.009951 
" style="fill:#f0f921;stroke:#f0f921;stroke-width:1.5;"/>
    <path clip-path="url(#pdc15675605)" d="M 168.836563 441.009761 
L 173.836563 436.009761 
M 168.836563 436.009761 
L 173.836563 441.009761 
" style="fill:#f0f921;stroke:#f0f921;stroke-width:1.5;"/>
    <path clip-path="url(#pdc15675605)" d="M 170.957155 420.75496 
L 175.957155 415.75496 
M 170.957155 415.75496 
L 175.957155 420.75496 
" style="fill:#f0f921;stroke:#f0f921;stroke-width:1.5;"/>
    <path clip-path="url(#pdc15675605)" d="M 173.077746 420.100536 
L 178.077746 415.100536 
M 173.077746 415.100536 
L 178.077746 420.100536 
" style="fill:#f0f921;stroke:#f0f921;stroke-width:1.5;"/>
    <path clip-path="url(#pdc15675605)" d="M 175.198338 423.069906 
L 180.198338 418.069906 
M 175.198338 418.069906 
L 180.198338 423.069906 
" style="fill:#f0f921;stroke:#f0f921;stroke-width:1.5;"/>
    <path clip-path="url(#pdc15675605)" d="M 177.318929 387.544998 
L 182.318929 382.544998 
M 177.318929 382.544998 
L 182.318929 387.544998 
" style="fill:#f0f921;stroke:#f0f921;stroke-width:1.5;"/>
    <path clip-path="url(#pdc15675605)" d="M 179.43952 412.490314 
L 184.43952 407.490314 
M 179.43952 407.490314 
L 184.43952 412.490314 
" style="fill:#f0f921;stroke:#f0f921;stroke-width:1.5;"/>
    <path clip-path="url(#pdc15675605)" d="M 181.560112 423.522621 
L 186.560112 418.522621 
M 181.560112 418.522621 
L 186.560112 423.522621 
" style="fill:#f0f921;stroke:#f0f921;stroke-width:1.5;"/>
    <path clip-path="url(#pdc15675605)" d="M 183.680703 407.333667 
L 188.680703 402.333667 
M 183.680703 402.333667 
L 188.680703 407.333667 
" style="fill:#f0f921;stroke:#f0f921;stroke-width:1.5;"/>
    <path clip-path="url(#pdc15675605)" d="M 185.801295 334.182563 
L 190.801295 329.182563 
M 185.801295 329.182563 
L 190.801295 334.182563 
" style="fill:#f0f921;stroke:#f0f921;stroke-width:1.5;"/>
    <path clip-path="url(#pdc15675605)" d="M 187.921886 400.993933 
L 192.921886 395.993933 
M 187.921886 395.993933 
L 192.921886 400.993933 
" style="fill:#f0f921;stroke:#f0f921;stroke-width:1.5;"/>
    <path clip-path="url(#pdc15675605)" d="M 190.042478 422.537626 
L 195.042478 417.537626 
M 190.042478 417.537626 
L 195.042478 422.537626 
" style="fill:#f0f921;stroke:#f0f921;stroke-width:1.5;"/>
    <path clip-path="url(#pdc15675605)" d="M 192.163069 384.234407 
L 197.163069 379.234407 
M 192.163069 379.234407 
L 197.163069 384.234407 
" style="fill:#f0f921;stroke:#f0f921;stroke-width:1.5;"/>
    <path clip-path="url(#pdc15675605)" d="M 194.283661 442.013957 
L 199.283661 437.013957 
M 194.283661 437.013957 
L 199.283661 442.013957 
" style="fill:#f0f921;stroke:#f0f921;stroke-width:1.5;"/>
    <path clip-path="url(#pdc15675605)" d="M 196.404252 76.134998 
L 201.404252 71.134998 
M 196.404252 71.134998 
L 201.404252 76.134998 
" style="fill:#f0f921;stroke:#f0f921;stroke-width:1.5;"/>
    <path clip-path="url(#pdc15675605)" d="M 198.524843 292.475001 
L 203.524843 287.475001 
M 198.524843 287.475001 
L 203.524843 292.475001 
" style="fill:#f0f921;stroke:#f0f921;stroke-width:1.5;"/>
    <path clip-path="url(#pdc15675605)" d="M 200.645435 309.058913 
L 205.645435 304.058913 
M 200.645435 304.058913 
L 205.645435 309.058913 
" style="fill:#f0f921;stroke:#f0f921;stroke-width:1.5;"/>
    <path clip-path="url(#pdc15675605)" d="M 202.766026 445.047518 
L 207.766026 440.047518 
M 202.766026 440.047518 
L 207.766026 445.047518 
" style="fill:#ed7953;stroke:#ed7953;stroke-width:1.5;"/>
    <path clip-path="url(#pdc15675605)" d="M 204.886618 388.749244 
L 209.886618 383.749244 
M 204.886618 383.749244 
L 209.886618 388.749244 
" style="fill:#f0f921;stroke:#f0f921;stroke-width:1.5;"/>
    <path clip-path="url(#pdc15675605)" d="M 207.007209 422.118392 
L 212.007209 417.118392 
M 207.007209 417.118392 
L 212.007209 422.118392 
" style="fill:#f0f921;stroke:#f0f921;stroke-width:1.5;"/>
    <path clip-path="url(#pdc15675605)" d="M 209.127801 457.524259 
L 214.127801 452.524259 
M 209.127801 452.524259 
L 214.127801 457.524259 
" style="fill:#f0f921;stroke:#f0f921;stroke-width:1.5;"/>
    <path clip-path="url(#pdc15675605)" d="M 211.248392 447.755933 
L 216.248392 442.755933 
M 211.248392 442.755933 
L 216.248392 447.755933 
" style="fill:#f0f921;stroke:#f0f921;stroke-width:1.5;"/>
    <path clip-path="url(#pdc15675605)" d="M 213.368984 443.827237 
L 218.368984 438.827237 
M 213.368984 438.827237 
L 218.368984 443.827237 
" style="fill:#f0f921;stroke:#f0f921;stroke-width:1.5;"/>
    <path clip-path="url(#pdc15675605)" d="M 217.610167 457.524259 
L 222.610167 452.524259 
M 217.610167 452.524259 
L 222.610167 457.524259 
" style="fill:#f0f921;stroke:#f0f921;stroke-width:1.5;"/>
    <path clip-path="url(#pdc15675605)" d="M 219.730758 457.524259 
L 224.730758 452.524259 
M 219.730758 452.524259 
L 224.730758 457.524259 
" style="fill:#f0f921;stroke:#f0f921;stroke-width:1.5;"/>
    <path clip-path="url(#pdc15675605)" d="M 221.851349 412.982069 
L 226.851349 407.982069 
M 221.851349 407.982069 
L 226.851349 412.982069 
" style="fill:#f0f921;stroke:#f0f921;stroke-width:1.5;"/>
    <path clip-path="url(#pdc15675605)" d="M 223.971941 396.310267 
L 228.971941 391.310267 
M 223.971941 391.310267 
L 228.971941 396.310267 
" style="fill:#f0f921;stroke:#f0f921;stroke-width:1.5;"/>
    <path clip-path="url(#pdc15675605)" d="M 226.092532 440.725733 
L 231.092532 435.725733 
M 226.092532 435.725733 
L 231.092532 440.725733 
" style="fill:#f0f921;stroke:#f0f921;stroke-width:1.5;"/>
    <path clip-path="url(#pdc15675605)" d="M 228.213124 404.204695 
L 233.213124 399.204695 
M 228.213124 399.204695 
L 233.213124 404.204695 
" style="fill:#f0f921;stroke:#f0f921;stroke-width:1.5;"/>
    <path clip-path="url(#pdc15675605)" d="M 230.333715 449.89335 
L 235.333715 444.89335 
M 230.333715 444.89335 
L 235.333715 449.89335 
" style="fill:#ed7953;stroke:#ed7953;stroke-width:1.5;"/>
    <path clip-path="url(#pdc15675605)" d="M 232.454307 433.058627 
L 237.454307 428.058627 
M 232.454307 428.058627 
L 237.454307 433.058627 
" style="fill:#f0f921;stroke:#f0f921;stroke-width:1.5;"/>
    <path clip-path="url(#pdc15675605)" d="M 234.574898 372.329449 
L 239.574898 367.329449 
M 234.574898 367.329449 
L 239.574898 372.329449 
" style="fill:#f0f921;stroke:#f0f921;stroke-width:1.5;"/>
    <path clip-path="url(#pdc15675605)" d="M 236.69549 450.189321 
L 241.69549 445.189321 
M 236.69549 445.189321 
L 241.69549 450.189321 
" style="fill:#ed7953;stroke:#ed7953;stroke-width:1.5;"/>
    <path clip-path="url(#pdc15675605)" d="M 238.816081 429.236713 
L 243.816081 424.236713 
M 238.816081 424.236713 
L 243.816081 429.236713 
" style="fill:#f0f921;stroke:#f0f921;stroke-width:1.5;"/>
    <path clip-path="url(#pdc15675605)" d="M 240.936672 408.447409 
L 245.936672 403.447409 
M 240.936672 403.447409 
L 245.936672 408.447409 
" style="fill:#f0f921;stroke:#f0f921;stroke-width:1.5;"/>
    <path clip-path="url(#pdc15675605)" d="M 243.057264 304.664299 
L 248.057264 299.664299 
M 243.057264 299.664299 
L 248.057264 304.664299 
" style="fill:#f0f921;stroke:#f0f921;stroke-width:1.5;"/>
    <path clip-path="url(#pdc15675605)" d="M 245.177855 431.179171 
L 250.177855 426.179171 
M 245.177855 426.179171 
L 250.177855 431.179171 
" style="fill:#f0f921;stroke:#f0f921;stroke-width:1.5;"/>
    <path clip-path="url(#pdc15675605)" d="M 247.298447 426.122579 
L 252.298447 421.122579 
M 247.298447 421.122579 
L 252.298447 426.122579 
" style="fill:#f0f921;stroke:#f0f921;stroke-width:1.5;"/>
    <path clip-path="url(#pdc15675605)" d="M 249.419038 457.524259 
L 254.419038 452.524259 
M 249.419038 452.524259 
L 254.419038 457.524259 
" style="fill:#f0f921;stroke:#f0f921;stroke-width:1.5;"/>
    <path clip-path="url(#pdc15675605)" d="M 251.53963 406.439472 
L 256.53963 401.439472 
M 251.53963 401.439472 
L 256.53963 406.439472 
" style="fill:#f0f921;stroke:#f0f921;stroke-width:1.5;"/>
    <path clip-path="url(#pdc15675605)" d="M 253.660221 393.758143 
L 258.660221 388.758143 
M 253.660221 388.758143 
L 258.660221 393.758143 
" style="fill:#f0f921;stroke:#f0f921;stroke-width:1.5;"/>
    <path clip-path="url(#pdc15675605)" d="M 255.780813 457.524259 
L 260.780813 452.524259 
M 255.780813 452.524259 
L 260.780813 457.524259 
" style="fill:#f0f921;stroke:#f0f921;stroke-width:1.5;"/>
    <path clip-path="url(#pdc15675605)" d="M 257.901404 415.57727 
L 262.901404 410.57727 
M 257.901404 410.57727 
L 262.901404 415.57727 
" style="fill:#f0f921;stroke:#f0f921;stroke-width:1.5;"/>
    <path clip-path="url(#pdc15675605)" d="M 260.021996 336.180059 
L 265.021996 331.180059 
M 260.021996 331.180059 
L 265.021996 336.180059 
" style="fill:#f0f921;stroke:#f0f921;stroke-width:1.5;"/>
    <path clip-path="url(#pdc15675605)" d="M 264.263178 399.029851 
L 269.263178 394.029851 
M 264.263178 394.029851 
L 269.263178 399.029851 
" style="fill:#f0f921;stroke:#f0f921;stroke-width:1.5;"/>
    <path clip-path="url(#pdc15675605)" d="M 268.504361 381.657904 
L 273.504361 376.657904 
M 268.504361 376.657904 
L 273.504361 381.657904 
" style="fill:#f0f921;stroke:#f0f921;stroke-width:1.5;"/>
    <path clip-path="url(#pdc15675605)" d="M 270.624953 408.702928 
L 275.624953 403.702928 
M 270.624953 403.702928 
L 275.624953 408.702928 
" style="fill:#f0f921;stroke:#f0f921;stroke-width:1.5;"/>
    <path clip-path="url(#pdc15675605)" d="M 272.745544 395.566643 
L 277.745544 390.566643 
M 272.745544 390.566643 
L 277.745544 395.566643 
" style="fill:#f0f921;stroke:#f0f921;stroke-width:1.5;"/>
    <path clip-path="url(#pdc15675605)" d="M 274.866136 375.836439 
L 279.866136 370.836439 
M 274.866136 370.836439 
L 279.866136 375.836439 
" style="fill:#f0f921;stroke:#f0f921;stroke-width:1.5;"/>
    <path clip-path="url(#pdc15675605)" d="M 276.986727 336.96879 
L 281.986727 331.96879 
M 276.986727 331.96879 
L 281.986727 336.96879 
" style="fill:#f0f921;stroke:#f0f921;stroke-width:1.5;"/>
    <path clip-path="url(#pdc15675605)" d="M 279.107319 423.955316 
L 284.107319 418.955316 
M 279.107319 418.955316 
L 284.107319 423.955316 
" style="fill:#f0f921;stroke:#f0f921;stroke-width:1.5;"/>
    <path clip-path="url(#pdc15675605)" d="M 281.22791 388.602741 
L 286.22791 383.602741 
M 281.22791 383.602741 
L 286.22791 388.602741 
" style="fill:#f0f921;stroke:#f0f921;stroke-width:1.5;"/>
    <path clip-path="url(#pdc15675605)" d="M 283.348502 421.892305 
L 288.348502 416.892305 
M 283.348502 416.892305 
L 288.348502 421.892305 
" style="fill:#f0f921;stroke:#f0f921;stroke-width:1.5;"/>
    <path clip-path="url(#pdc15675605)" d="M 287.589684 412.05209 
L 292.589684 407.05209 
M 287.589684 407.05209 
L 292.589684 412.05209 
" style="fill:#f0f921;stroke:#f0f921;stroke-width:1.5;"/>
    <path clip-path="url(#pdc15675605)" d="M 289.710276 420.610177 
L 294.710276 415.610177 
M 289.710276 415.610177 
L 294.710276 420.610177 
" style="fill:#f0f921;stroke:#f0f921;stroke-width:1.5;"/>
    <path clip-path="url(#pdc15675605)" d="M 291.830867 421.359776 
L 296.830867 416.359776 
M 291.830867 416.359776 
L 296.830867 421.359776 
" style="fill:#f0f921;stroke:#f0f921;stroke-width:1.5;"/>
    <path clip-path="url(#pdc15675605)" d="M 293.951459 429.354394 
L 298.951459 424.354394 
M 293.951459 424.354394 
L 298.951459 429.354394 
" style="fill:#f0f921;stroke:#f0f921;stroke-width:1.5;"/>
    <path clip-path="url(#pdc15675605)" d="M 296.07205 434.965536 
L 301.07205 429.965536 
M 296.07205 429.965536 
L 301.07205 434.965536 
" style="fill:#f0f921;stroke:#f0f921;stroke-width:1.5;"/>
    <path clip-path="url(#pdc15675605)" d="M 298.192642 417.74425 
L 303.192642 412.74425 
M 298.192642 412.74425 
L 303.192642 417.74425 
" style="fill:#f0f921;stroke:#f0f921;stroke-width:1.5;"/>
    <path clip-path="url(#pdc15675605)" d="M 300.313233 414.299 
L 305.313233 409.299 
M 300.313233 409.299 
L 305.313233 414.299 
" style="fill:#f0f921;stroke:#f0f921;stroke-width:1.5;"/>
    <path clip-path="url(#pdc15675605)" d="M 302.433825 411.138852 
L 307.433825 406.138852 
M 302.433825 406.138852 
L 307.433825 411.138852 
" style="fill:#f0f921;stroke:#f0f921;stroke-width:1.5;"/>
    <path clip-path="url(#pdc15675605)" d="M 304.554416 443.87773 
L 309.554416 438.87773 
M 304.554416 438.87773 
L 309.554416 443.87773 
" style="fill:#f0f921;stroke:#f0f921;stroke-width:1.5;"/>
    <path clip-path="url(#pdc15675605)" d="M 306.675007 457.524259 
L 311.675007 452.524259 
M 306.675007 452.524259 
L 311.675007 457.524259 
" style="fill:#f0f921;stroke:#f0f921;stroke-width:1.5;"/>
    <path clip-path="url(#pdc15675605)" d="M 308.795599 439.786542 
L 313.795599 434.786542 
M 308.795599 434.786542 
L 313.795599 439.786542 
" style="fill:#f0f921;stroke:#f0f921;stroke-width:1.5;"/>
    <path clip-path="url(#pdc15675605)" d="M 310.91619 433.920347 
L 315.91619 428.920347 
M 310.91619 428.920347 
L 315.91619 433.920347 
" style="fill:#f0f921;stroke:#f0f921;stroke-width:1.5;"/>
    <path clip-path="url(#pdc15675605)" d="M 313.036782 436.422666 
L 318.036782 431.422666 
M 313.036782 431.422666 
L 318.036782 436.422666 
" style="fill:#f0f921;stroke:#f0f921;stroke-width:1.5;"/>
    <path clip-path="url(#pdc15675605)" d="M 315.157373 407.511453 
L 320.157373 402.511453 
M 315.157373 402.511453 
L 320.157373 407.511453 
" style="fill:#f0f921;stroke:#f0f921;stroke-width:1.5;"/>
    <path clip-path="url(#pdc15675605)" d="M 317.277965 410.833217 
L 322.277965 405.833217 
M 317.277965 405.833217 
L 322.277965 410.833217 
" style="fill:#f0f921;stroke:#f0f921;stroke-width:1.5;"/>
    <path clip-path="url(#pdc15675605)" d="M 319.398556 364.24252 
L 324.398556 359.24252 
M 319.398556 359.24252 
L 324.398556 364.24252 
" style="fill:#f0f921;stroke:#f0f921;stroke-width:1.5;"/>
    <path clip-path="url(#pdc15675605)" d="M 321.519148 442.271248 
L 326.519148 437.271248 
M 321.519148 437.271248 
L 326.519148 442.271248 
" style="fill:#ed7953;stroke:#ed7953;stroke-width:1.5;"/>
    <path clip-path="url(#pdc15675605)" d="M 323.639739 429.339213 
L 328.639739 424.339213 
M 323.639739 424.339213 
L 328.639739 429.339213 
" style="fill:#f0f921;stroke:#f0f921;stroke-width:1.5;"/>
    <path clip-path="url(#pdc15675605)" d="M 325.760331 371.899313 
L 330.760331 366.899313 
M 325.760331 366.899313 
L 330.760331 371.899313 
" style="fill:#f0f921;stroke:#f0f921;stroke-width:1.5;"/>
    <path clip-path="url(#pdc15675605)" d="M 330.001513 343.346162 
L 335.001513 338.346162 
M 330.001513 338.346162 
L 335.001513 343.346162 
" style="fill:#f0f921;stroke:#f0f921;stroke-width:1.5;"/>
    <path clip-path="url(#pdc15675605)" d="M 334.242696 427.585501 
L 339.242696 422.585501 
M 334.242696 422.585501 
L 339.242696 427.585501 
" style="fill:#f0f921;stroke:#f0f921;stroke-width:1.5;"/>
    <path clip-path="url(#pdc15675605)" d="M 336.363288 419.639723 
L 341.363288 414.639723 
M 336.363288 414.639723 
L 341.363288 419.639723 
" style="fill:#f0f921;stroke:#f0f921;stroke-width:1.5;"/>
    <path clip-path="url(#pdc15675605)" d="M 338.483879 457.524259 
L 343.483879 452.524259 
M 338.483879 452.524259 
L 343.483879 457.524259 
" style="fill:#f0f921;stroke:#f0f921;stroke-width:1.5;"/>
    <path clip-path="url(#pdc15675605)" d="M 342.725062 436.232664 
L 347.725062 431.232664 
M 342.725062 431.232664 
L 347.725062 436.232664 
" style="fill:#f0f921;stroke:#f0f921;stroke-width:1.5;"/>
    <path clip-path="url(#pdc15675605)" d="M 344.845654 457.524259 
L 349.845654 452.524259 
M 344.845654 452.524259 
L 349.845654 457.524259 
" style="fill:#f0f921;stroke:#f0f921;stroke-width:1.5;"/>
    <path clip-path="url(#pdc15675605)" d="M 346.966245 457.524259 
L 351.966245 452.524259 
M 346.966245 452.524259 
L 351.966245 457.524259 
" style="fill:#f0f921;stroke:#f0f921;stroke-width:1.5;"/>
    <path clip-path="url(#pdc15675605)" d="M 349.086837 396.561309 
L 354.086837 391.561309 
M 349.086837 391.561309 
L 354.086837 396.561309 
" style="fill:#f0f921;stroke:#f0f921;stroke-width:1.5;"/>
    <path clip-path="url(#pdc15675605)" d="M 353.328019 445.087144 
L 358.328019 440.087144 
M 353.328019 440.087144 
L 358.328019 445.087144 
" style="fill:#f0f921;stroke:#f0f921;stroke-width:1.5;"/>
    <path clip-path="url(#pdc15675605)" d="M 355.448611 457.524259 
L 360.448611 452.524259 
M 355.448611 452.524259 
L 360.448611 457.524259 
" style="fill:#f0f921;stroke:#f0f921;stroke-width:1.5;"/>
    <path clip-path="url(#pdc15675605)" d="M 357.569202 457.524259 
L 362.569202 452.524259 
M 357.569202 452.524259 
L 362.569202 457.524259 
" style="fill:#f0f921;stroke:#f0f921;stroke-width:1.5;"/>
    <path clip-path="url(#pdc15675605)" d="M 359.689794 457.524259 
L 364.689794 452.524259 
M 359.689794 452.524259 
L 364.689794 457.524259 
" style="fill:#f0f921;stroke:#f0f921;stroke-width:1.5;"/>
    <path clip-path="url(#pdc15675605)" d="M 361.810385 422.577018 
L 366.810385 417.577018 
M 361.810385 417.577018 
L 366.810385 422.577018 
" style="fill:#f0f921;stroke:#f0f921;stroke-width:1.5;"/>
    <path clip-path="url(#pdc15675605)" d="M 363.930977 373.054347 
L 368.930977 368.054347 
M 363.930977 368.054347 
L 368.930977 373.054347 
" style="fill:#f0f921;stroke:#f0f921;stroke-width:1.5;"/>
    <path clip-path="url(#pdc15675605)" d="M 366.051568 434.131156 
L 371.051568 429.131156 
M 366.051568 429.131156 
L 371.051568 434.131156 
" style="fill:#f0f921;stroke:#f0f921;stroke-width:1.5;"/>
    <path clip-path="url(#pdc15675605)" d="M 370.292751 457.524259 
L 375.292751 452.524259 
M 370.292751 452.524259 
L 375.292751 457.524259 
" style="fill:#f0f921;stroke:#f0f921;stroke-width:1.5;"/>
    <path clip-path="url(#pdc15675605)" d="M 372.413342 433.28688 
L 377.413342 428.28688 
M 372.413342 428.28688 
L 377.413342 433.28688 
" style="fill:#f0f921;stroke:#f0f921;stroke-width:1.5;"/>
    <path clip-path="url(#pdc15675605)" d="M 374.533934 457.524259 
L 379.533934 452.524259 
M 374.533934 452.524259 
L 379.533934 457.524259 
" style="fill:#9c179e;stroke:#9c179e;stroke-width:1.5;"/>
    <path clip-path="url(#pdc15675605)" d="M 376.654525 457.524259 
L 381.654525 452.524259 
M 376.654525 452.524259 
L 381.654525 457.524259 
" style="fill:#f0f921;stroke:#f0f921;stroke-width:1.5;"/>
    <path clip-path="url(#pdc15675605)" d="M 378.775117 415.88695 
L 383.775117 410.88695 
M 378.775117 410.88695 
L 383.775117 415.88695 
" style="fill:#f0f921;stroke:#f0f921;stroke-width:1.5;"/>
    <path clip-path="url(#pdc15675605)" d="M 380.895708 421.867417 
L 385.895708 416.867417 
M 380.895708 416.867417 
L 385.895708 421.867417 
" style="fill:#f0f921;stroke:#f0f921;stroke-width:1.5;"/>
    <path clip-path="url(#pdc15675605)" d="M 383.0163 427.869319 
L 388.0163 422.869319 
M 383.0163 422.869319 
L 388.0163 427.869319 
" style="fill:#f0f921;stroke:#f0f921;stroke-width:1.5;"/>
    <path clip-path="url(#pdc15675605)" d="M 385.136891 406.419076 
L 390.136891 401.419076 
M 385.136891 401.419076 
L 390.136891 406.419076 
" style="fill:#f0f921;stroke:#f0f921;stroke-width:1.5;"/>
    <path clip-path="url(#pdc15675605)" d="M 387.257483 457.524259 
L 392.257483 452.524259 
M 387.257483 452.524259 
L 392.257483 457.524259 
" style="fill:#f0f921;stroke:#f0f921;stroke-width:1.5;"/>
    <path clip-path="url(#pdc15675605)" d="M 391.498666 405.499548 
L 396.498666 400.499548 
M 391.498666 400.499548 
L 396.498666 405.499548 
" style="fill:#f0f921;stroke:#f0f921;stroke-width:1.5;"/>
    <path clip-path="url(#pdc15675605)" d="M 393.619257 457.524259 
L 398.619257 452.524259 
M 393.619257 452.524259 
L 398.619257 457.524259 
" style="fill:#f0f921;stroke:#f0f921;stroke-width:1.5;"/>
    <path clip-path="url(#pdc15675605)" d="M 395.739848 442.275689 
L 400.739848 437.275689 
M 395.739848 437.275689 
L 400.739848 442.275689 
" style="fill:#f0f921;stroke:#f0f921;stroke-width:1.5;"/>
    <path clip-path="url(#pdc15675605)" d="M 397.86044 393.46265 
L 402.86044 388.46265 
M 397.86044 388.46265 
L 402.86044 393.46265 
" style="fill:#f0f921;stroke:#f0f921;stroke-width:1.5;"/>
    <path clip-path="url(#pdc15675605)" d="M 399.981031 457.524259 
L 404.981031 452.524259 
M 399.981031 452.524259 
L 404.981031 457.524259 
" style="fill:#f0f921;stroke:#f0f921;stroke-width:1.5;"/>
    <path clip-path="url(#pdc15675605)" d="M 402.101623 367.484664 
L 407.101623 362.484664 
M 402.101623 362.484664 
L 407.101623 367.484664 
" style="fill:#f0f921;stroke:#f0f921;stroke-width:1.5;"/>
    <path clip-path="url(#pdc15675605)" d="M 404.222214 457.524259 
L 409.222214 452.524259 
M 404.222214 452.524259 
L 409.222214 457.524259 
" style="fill:#f0f921;stroke:#f0f921;stroke-width:1.5;"/>
    <path clip-path="url(#pdc15675605)" d="M 406.342806 457.524259 
L 411.342806 452.524259 
M 406.342806 452.524259 
L 411.342806 457.524259 
" style="fill:#f0f921;stroke:#f0f921;stroke-width:1.5;"/>
    <path clip-path="url(#pdc15675605)" d="M 410.583989 457.524259 
L 415.583989 452.524259 
M 410.583989 452.524259 
L 415.583989 457.524259 
" style="fill:#f0f921;stroke:#f0f921;stroke-width:1.5;"/>
    <path clip-path="url(#pdc15675605)" d="M 412.70458 428.538195 
L 417.70458 423.538195 
M 412.70458 423.538195 
L 417.70458 428.538195 
" style="fill:#f0f921;stroke:#f0f921;stroke-width:1.5;"/>
    <path clip-path="url(#pdc15675605)" d="M 414.825171 457.524259 
L 419.825171 452.524259 
M 414.825171 452.524259 
L 419.825171 457.524259 
" style="fill:#9c179e;stroke:#9c179e;stroke-width:1.5;"/>
    <path clip-path="url(#pdc15675605)" d="M 416.945763 457.524259 
L 421.945763 452.524259 
M 416.945763 452.524259 
L 421.945763 457.524259 
" style="fill:#f0f921;stroke:#f0f921;stroke-width:1.5;"/>
    <path clip-path="url(#pdc15675605)" d="M 419.066354 440.231627 
L 424.066354 435.231627 
M 419.066354 435.231627 
L 424.066354 440.231627 
" style="fill:#f0f921;stroke:#f0f921;stroke-width:1.5;"/>
    <path clip-path="url(#pdc15675605)" d="M 421.186946 457.524259 
L 426.186946 452.524259 
M 421.186946 452.524259 
L 426.186946 457.524259 
" style="fill:#f0f921;stroke:#f0f921;stroke-width:1.5;"/>
    <path clip-path="url(#pdc15675605)" d="M 425.428129 457.524259 
L 430.428129 452.524259 
M 425.428129 452.524259 
L 430.428129 457.524259 
" style="fill:#9c179e;stroke:#9c179e;stroke-width:1.5;"/>
    <path clip-path="url(#pdc15675605)" d="M 431.789903 457.524259 
L 436.789903 452.524259 
M 431.789903 452.524259 
L 436.789903 457.524259 
" style="fill:#9c179e;stroke:#9c179e;stroke-width:1.5;"/>
    <path clip-path="url(#pdc15675605)" d="M 433.910495 423.409299 
L 438.910495 418.409299 
M 433.910495 418.409299 
L 438.910495 423.409299 
" style="fill:#f0f921;stroke:#f0f921;stroke-width:1.5;"/>
    <path clip-path="url(#pdc15675605)" d="M 436.031086 411.958171 
L 441.031086 406.958171 
M 436.031086 406.958171 
L 441.031086 411.958171 
" style="fill:#f0f921;stroke:#f0f921;stroke-width:1.5;"/>
    <path clip-path="url(#pdc15675605)" d="M 438.151677 410.385587 
L 443.151677 405.385587 
M 438.151677 405.385587 
L 443.151677 410.385587 
" style="fill:#f0f921;stroke:#f0f921;stroke-width:1.5;"/>
    <path clip-path="url(#pdc15675605)" d="M 440.272269 457.524259 
L 445.272269 452.524259 
M 440.272269 452.524259 
L 445.272269 457.524259 
" style="fill:#9c179e;stroke:#9c179e;stroke-width:1.5;"/>
    <path clip-path="url(#pdc15675605)" d="M 442.39286 397.704024 
L 447.39286 392.704024 
M 442.39286 392.704024 
L 447.39286 397.704024 
" style="fill:#f0f921;stroke:#f0f921;stroke-width:1.5;"/>
    <path clip-path="url(#pdc15675605)" d="M 446.634043 423.708427 
L 451.634043 418.708427 
M 446.634043 418.708427 
L 451.634043 423.708427 
" style="fill:#f0f921;stroke:#f0f921;stroke-width:1.5;"/>
    <path clip-path="url(#pdc15675605)" d="M 448.754635 457.524259 
L 453.754635 452.524259 
M 448.754635 452.524259 
L 453.754635 457.524259 
" style="fill:#f0f921;stroke:#f0f921;stroke-width:1.5;"/>
    <path clip-path="url(#pdc15675605)" d="M 450.875226 425.654634 
L 455.875226 420.654634 
M 450.875226 420.654634 
L 455.875226 425.654634 
" style="fill:#f0f921;stroke:#f0f921;stroke-width:1.5;"/>
    <path clip-path="url(#pdc15675605)" d="M 452.995818 422.118392 
L 457.995818 417.118392 
M 452.995818 417.118392 
L 457.995818 422.118392 
" style="fill:#f0f921;stroke:#f0f921;stroke-width:1.5;"/>
    <path clip-path="url(#pdc15675605)" d="M 455.116409 457.524259 
L 460.116409 452.524259 
M 455.116409 452.524259 
L 460.116409 457.524259 
" style="fill:#f0f921;stroke:#f0f921;stroke-width:1.5;"/>
    <path clip-path="url(#pdc15675605)" d="M 457.237001 423.193764 
L 462.237001 418.193764 
M 457.237001 418.193764 
L 462.237001 423.193764 
" style="fill:#f0f921;stroke:#f0f921;stroke-width:1.5;"/>
    <path clip-path="url(#pdc15675605)" d="M 459.357592 444.139889 
L 464.357592 439.139889 
M 459.357592 439.139889 
L 464.357592 444.139889 
" style="fill:#f0f921;stroke:#f0f921;stroke-width:1.5;"/>
    <path clip-path="url(#pdc15675605)" d="M 461.478183 457.524259 
L 466.478183 452.524259 
M 461.478183 452.524259 
L 466.478183 457.524259 
" style="fill:#f0f921;stroke:#f0f921;stroke-width:1.5;"/>
    <path clip-path="url(#pdc15675605)" d="M 463.598775 445.644836 
L 468.598775 440.644836 
M 463.598775 440.644836 
L 468.598775 445.644836 
" style="fill:#f0f921;stroke:#f0f921;stroke-width:1.5;"/>
    <path clip-path="url(#pdc15675605)" d="M 465.719366 444.993287 
L 470.719366 439.993287 
M 465.719366 439.993287 
L 470.719366 444.993287 
" style="fill:#ed7953;stroke:#ed7953;stroke-width:1.5;"/>
    <path clip-path="url(#pdc15675605)" d="M 467.839958 411.314829 
L 472.839958 406.314829 
M 467.839958 406.314829 
L 472.839958 411.314829 
" style="fill:#f0f921;stroke:#f0f921;stroke-width:1.5;"/>
    <path clip-path="url(#pdc15675605)" d="M 469.960549 443.142553 
L 474.960549 438.142553 
M 469.960549 438.142553 
L 474.960549 443.142553 
" style="fill:#ed7953;stroke:#ed7953;stroke-width:1.5;"/>
    <path clip-path="url(#pdc15675605)" d="M 472.081141 413.34423 
L 477.081141 408.34423 
M 472.081141 408.34423 
L 477.081141 413.34423 
" style="fill:#f0f921;stroke:#f0f921;stroke-width:1.5;"/>
    <path clip-path="url(#pdc15675605)" d="M 474.201732 381.817761 
L 479.201732 376.817761 
M 474.201732 376.817761 
L 479.201732 381.817761 
" style="fill:#f0f921;stroke:#f0f921;stroke-width:1.5;"/>
    <path clip-path="url(#pdc15675605)" d="M 476.322324 400.361447 
L 481.322324 395.361447 
M 476.322324 395.361447 
L 481.322324 400.361447 
" style="fill:#f0f921;stroke:#f0f921;stroke-width:1.5;"/>
    <path clip-path="url(#pdc15675605)" d="M 480.563506 305.852592 
L 485.563506 300.852592 
M 480.563506 300.852592 
L 485.563506 305.852592 
" style="fill:#f0f921;stroke:#f0f921;stroke-width:1.5;"/>
    <path clip-path="url(#pdc15675605)" d="M 482.684098 376.664571 
L 487.684098 371.664571 
M 482.684098 371.664571 
L 487.684098 376.664571 
" style="fill:#f0f921;stroke:#f0f921;stroke-width:1.5;"/>
    <path clip-path="url(#pdc15675605)" d="M 486.925281 358.489039 
L 491.925281 353.489039 
M 486.925281 353.489039 
L 491.925281 358.489039 
" style="fill:#f0f921;stroke:#f0f921;stroke-width:1.5;"/>
    <path clip-path="url(#pdc15675605)" d="M 489.045872 401.414396 
L 494.045872 396.414396 
M 489.045872 396.414396 
L 494.045872 401.414396 
" style="fill:#f0f921;stroke:#f0f921;stroke-width:1.5;"/>
    <path clip-path="url(#pdc15675605)" d="M 491.166464 436.568811 
L 496.166464 431.568811 
M 491.166464 431.568811 
L 496.166464 436.568811 
" style="fill:#f0f921;stroke:#f0f921;stroke-width:1.5;"/>
    <path clip-path="url(#pdc15675605)" d="M 495.407647 448.767594 
L 500.407647 443.767594 
M 495.407647 443.767594 
L 500.407647 448.767594 
" style="fill:#9c179e;stroke:#9c179e;stroke-width:1.5;"/>
    <path clip-path="url(#pdc15675605)" d="M 497.528238 317.079519 
L 502.528238 312.079519 
M 497.528238 312.079519 
L 502.528238 317.079519 
" style="fill:#f0f921;stroke:#f0f921;stroke-width:1.5;"/>
    <path clip-path="url(#pdc15675605)" d="M 499.64883 433.197163 
L 504.64883 428.197163 
M 499.64883 428.197163 
L 504.64883 433.197163 
" style="fill:#f0f921;stroke:#f0f921;stroke-width:1.5;"/>
    <path clip-path="url(#pdc15675605)" d="M 501.769421 414.662564 
L 506.769421 409.662564 
M 501.769421 409.662564 
L 506.769421 414.662564 
" style="fill:#f0f921;stroke:#f0f921;stroke-width:1.5;"/>
    <path clip-path="url(#pdc15675605)" d="M 503.890012 444.438806 
L 508.890012 439.438806 
M 503.890012 439.438806 
L 508.890012 444.438806 
" style="fill:#f0f921;stroke:#f0f921;stroke-width:1.5;"/>
    <path clip-path="url(#pdc15675605)" d="M 506.010604 387.470944 
L 511.010604 382.470944 
M 506.010604 382.470944 
L 511.010604 387.470944 
" style="fill:#f0f921;stroke:#f0f921;stroke-width:1.5;"/>
    <path clip-path="url(#pdc15675605)" d="M 508.131195 457.524259 
L 513.131195 452.524259 
M 508.131195 452.524259 
L 513.131195 457.524259 
" style="fill:#9c179e;stroke:#9c179e;stroke-width:1.5;"/>
    <path clip-path="url(#pdc15675605)" d="M 510.251787 457.524259 
L 515.251787 452.524259 
M 510.251787 452.524259 
L 515.251787 457.524259 
" style="fill:#9c179e;stroke:#9c179e;stroke-width:1.5;"/>
    <path clip-path="url(#pdc15675605)" d="M 512.372378 457.524259 
L 517.372378 452.524259 
M 512.372378 452.524259 
L 517.372378 457.524259 
" style="fill:#9c179e;stroke:#9c179e;stroke-width:1.5;"/>
    <path clip-path="url(#pdc15675605)" d="M 514.49297 418.982786 
L 519.49297 413.982786 
M 514.49297 413.982786 
L 519.49297 418.982786 
" style="fill:#f0f921;stroke:#f0f921;stroke-width:1.5;"/>
    <path clip-path="url(#pdc15675605)" d="M 516.613561 457.524259 
L 521.613561 452.524259 
M 516.613561 452.524259 
L 521.613561 457.524259 
" style="fill:#0d0887;stroke:#0d0887;stroke-width:1.5;"/>
    <path clip-path="url(#pdc15675605)" d="M 518.734153 415.330022 
L 523.734153 410.330022 
M 518.734153 410.330022 
L 523.734153 415.330022 
" style="fill:#f0f921;stroke:#f0f921;stroke-width:1.5;"/>
    <path clip-path="url(#pdc15675605)" d="M 522.975335 433.92232 
L 527.975335 428.92232 
M 522.975335 428.92232 
L 527.975335 433.92232 
" style="fill:#f0f921;stroke:#f0f921;stroke-width:1.5;"/>
    <path clip-path="url(#pdc15675605)" d="M 525.095927 403.566414 
L 530.095927 398.566414 
M 525.095927 398.566414 
L 530.095927 403.566414 
" style="fill:#f0f921;stroke:#f0f921;stroke-width:1.5;"/>
    <path clip-path="url(#pdc15675605)" d="M 527.216518 435.862596 
L 532.216518 430.862596 
M 527.216518 430.862596 
L 532.216518 435.862596 
" style="fill:#f0f921;stroke:#f0f921;stroke-width:1.5;"/>
    <path clip-path="url(#pdc15675605)" d="M 529.33711 457.524259 
L 534.33711 452.524259 
M 529.33711 452.524259 
L 534.33711 457.524259 
" style="fill:#f0f921;stroke:#f0f921;stroke-width:1.5;"/>
    <path clip-path="url(#pdc15675605)" d="M 533.578293 457.524259 
L 538.578293 452.524259 
M 533.578293 452.524259 
L 538.578293 457.524259 
" style="fill:#f0f921;stroke:#f0f921;stroke-width:1.5;"/>
    <path clip-path="url(#pdc15675605)" d="M 537.819476 457.524259 
L 542.819476 452.524259 
M 537.819476 452.524259 
L 542.819476 457.524259 
" style="fill:#f0f921;stroke:#f0f921;stroke-width:1.5;"/>
    <path clip-path="url(#pdc15675605)" d="M 539.940067 436.3235 
L 544.940067 431.3235 
M 539.940067 431.3235 
L 544.940067 436.3235 
" style="fill:#f0f921;stroke:#f0f921;stroke-width:1.5;"/>
    <path clip-path="url(#pdc15675605)" d="M 542.060659 424.332053 
L 547.060659 419.332053 
M 542.060659 419.332053 
L 547.060659 424.332053 
" style="fill:#f0f921;stroke:#f0f921;stroke-width:1.5;"/>
    <path clip-path="url(#pdc15675605)" d="M 544.18125 457.524259 
L 549.18125 452.524259 
M 544.18125 452.524259 
L 549.18125 457.524259 
" style="fill:#f0f921;stroke:#f0f921;stroke-width:1.5;"/>
    <path clip-path="url(#pdc15675605)" d="M 546.301841 406.817352 
L 551.301841 401.817352 
M 546.301841 401.817352 
L 551.301841 406.817352 
" style="fill:#f0f921;stroke:#f0f921;stroke-width:1.5;"/>
    <path clip-path="url(#pdc15675605)" d="M 548.422433 414.692319 
L 553.422433 409.692319 
M 548.422433 409.692319 
L 553.422433 414.692319 
" style="fill:#f0f921;stroke:#f0f921;stroke-width:1.5;"/>
    <path clip-path="url(#pdc15675605)" d="M 550.543024 457.524259 
L 555.543024 452.524259 
M 550.543024 452.524259 
L 555.543024 457.524259 
" style="fill:#ed7953;stroke:#ed7953;stroke-width:1.5;"/>
    <path clip-path="url(#pdc15675605)" d="M 552.663616 442.750923 
L 557.663616 437.750923 
M 552.663616 437.750923 
L 557.663616 442.750923 
" style="fill:#f0f921;stroke:#f0f921;stroke-width:1.5;"/>
    <path clip-path="url(#pdc15675605)" d="M 554.784207 457.524259 
L 559.784207 452.524259 
M 554.784207 452.524259 
L 559.784207 457.524259 
" style="fill:#f0f921;stroke:#f0f921;stroke-width:1.5;"/>
    <path clip-path="url(#pdc15675605)" d="M 556.904799 427.777069 
L 561.904799 422.777069 
M 556.904799 422.777069 
L 561.904799 427.777069 
" style="fill:#f0f921;stroke:#f0f921;stroke-width:1.5;"/>
    <path clip-path="url(#pdc15675605)" d="M 559.02539 349.419179 
L 564.02539 344.419179 
M 559.02539 344.419179 
L 564.02539 349.419179 
" style="fill:#f0f921;stroke:#f0f921;stroke-width:1.5;"/>
    <path clip-path="url(#pdc15675605)" d="M 561.145982 406.802623 
L 566.145982 401.802623 
M 561.145982 401.802623 
L 566.145982 406.802623 
" style="fill:#f0f921;stroke:#f0f921;stroke-width:1.5;"/>
    <path clip-path="url(#pdc15675605)" d="M 563.266573 444.516355 
L 568.266573 439.516355 
M 563.266573 439.516355 
L 568.266573 444.516355 
" style="fill:#ed7953;stroke:#ed7953;stroke-width:1.5;"/>
    <path clip-path="url(#pdc15675605)" d="M 567.507756 439.228173 
L 572.507756 434.228173 
M 567.507756 434.228173 
L 572.507756 439.228173 
" style="fill:#f0f921;stroke:#f0f921;stroke-width:1.5;"/>
    <path clip-path="url(#pdc15675605)" d="M 569.628347 450.812624 
L 574.628347 445.812624 
M 569.628347 445.812624 
L 574.628347 450.812624 
" style="fill:#ed7953;stroke:#ed7953;stroke-width:1.5;"/>
    <path clip-path="url(#pdc15675605)" d="M 571.748939 421.994918 
L 576.748939 416.994918 
M 571.748939 416.994918 
L 576.748939 421.994918 
" style="fill:#f0f921;stroke:#f0f921;stroke-width:1.5;"/>
    <path clip-path="url(#pdc15675605)" d="M 573.86953 392.251203 
L 578.86953 387.251203 
M 573.86953 387.251203 
L 578.86953 392.251203 
" style="fill:#f0f921;stroke:#f0f921;stroke-width:1.5;"/>
    <path clip-path="url(#pdc15675605)" d="M 575.990122 400.10495 
L 580.990122 395.10495 
M 575.990122 395.10495 
L 580.990122 400.10495 
" style="fill:#f0f921;stroke:#f0f921;stroke-width:1.5;"/>
    <path clip-path="url(#pdc15675605)" d="M 580.231305 366.333234 
L 585.231305 361.333234 
M 580.231305 361.333234 
L 585.231305 366.333234 
" style="fill:#f0f921;stroke:#f0f921;stroke-width:1.5;"/>
    <path clip-path="url(#pdc15675605)" d="M 582.351896 374.863002 
L 587.351896 369.863002 
M 582.351896 369.863002 
L 587.351896 374.863002 
" style="fill:#f0f921;stroke:#f0f921;stroke-width:1.5;"/>
    <path clip-path="url(#pdc15675605)" d="M 590.834262 328.705307 
L 595.834262 323.705307 
M 590.834262 323.705307 
L 595.834262 328.705307 
" style="fill:#f0f921;stroke:#f0f921;stroke-width:1.5;"/>
    <path clip-path="url(#pdc15675605)" d="M 592.954853 388.83489 
L 597.954853 383.83489 
M 592.954853 383.83489 
L 597.954853 388.83489 
" style="fill:#f0f921;stroke:#f0f921;stroke-width:1.5;"/>
    <path clip-path="url(#pdc15675605)" d="M 597.196036 422.118392 
L 602.196036 417.118392 
M 597.196036 417.118392 
L 602.196036 422.118392 
" style="fill:#f0f921;stroke:#f0f921;stroke-width:1.5;"/>
    <path clip-path="url(#pdc15675605)" d="M 599.316628 259.206038 
L 604.316628 254.206038 
M 599.316628 254.206038 
L 604.316628 259.206038 
" style="fill:#f0f921;stroke:#f0f921;stroke-width:1.5;"/>
    <path clip-path="url(#pdc15675605)" d="M 601.437219 416.81948 
L 606.437219 411.81948 
M 601.437219 411.81948 
L 606.437219 416.81948 
" style="fill:#f0f921;stroke:#f0f921;stroke-width:1.5;"/>
    <path clip-path="url(#pdc15675605)" d="M 603.557811 428.933167 
L 608.557811 423.933167 
M 603.557811 423.933167 
L 608.557811 428.933167 
" style="fill:#f0f921;stroke:#f0f921;stroke-width:1.5;"/>
    <path clip-path="url(#pdc15675605)" d="M 605.678402 400.739624 
L 610.678402 395.739624 
M 605.678402 395.739624 
L 610.678402 400.739624 
" style="fill:#f0f921;stroke:#f0f921;stroke-width:1.5;"/>
    <path clip-path="url(#pdc15675605)" d="M 607.798994 427.347548 
L 612.798994 422.347548 
M 607.798994 422.347548 
L 612.798994 427.347548 
" style="fill:#f0f921;stroke:#f0f921;stroke-width:1.5;"/>
    <path clip-path="url(#pdc15675605)" d="M 609.919585 449.748969 
L 614.919585 444.748969 
M 609.919585 444.748969 
L 614.919585 449.748969 
" style="fill:#ed7953;stroke:#ed7953;stroke-width:1.5;"/>
    <path clip-path="url(#pdc15675605)" d="M 612.040176 408.196701 
L 617.040176 403.196701 
M 612.040176 403.196701 
L 617.040176 408.196701 
" style="fill:#f0f921;stroke:#f0f921;stroke-width:1.5;"/>
    <path clip-path="url(#pdc15675605)" d="M 614.160768 366.505872 
L 619.160768 361.505872 
M 614.160768 361.505872 
L 619.160768 366.505872 
" style="fill:#f0f921;stroke:#f0f921;stroke-width:1.5;"/>
    <path clip-path="url(#pdc15675605)" d="M 616.281359 420.303535 
L 621.281359 415.303535 
M 616.281359 415.303535 
L 621.281359 420.303535 
" style="fill:#f0f921;stroke:#f0f921;stroke-width:1.5;"/>
    <path clip-path="url(#pdc15675605)" d="M 618.401951 418.509053 
L 623.401951 413.509053 
M 618.401951 413.509053 
L 623.401951 418.509053 
" style="fill:#f0f921;stroke:#f0f921;stroke-width:1.5;"/>
    <path clip-path="url(#pdc15675605)" d="M 620.522542 407.255282 
L 625.522542 402.255282 
M 620.522542 402.255282 
L 625.522542 407.255282 
" style="fill:#f0f921;stroke:#f0f921;stroke-width:1.5;"/>
    <path clip-path="url(#pdc15675605)" d="M 622.643134 416.109701 
L 627.643134 411.109701 
M 622.643134 411.109701 
L 627.643134 416.109701 
" style="fill:#f0f921;stroke:#f0f921;stroke-width:1.5;"/>
    <path clip-path="url(#pdc15675605)" d="M 624.763725 308.986594 
L 629.763725 303.986594 
M 624.763725 303.986594 
L 629.763725 308.986594 
" style="fill:#f0f921;stroke:#f0f921;stroke-width:1.5;"/>
    <path clip-path="url(#pdc15675605)" d="M 626.884317 413.75342 
L 631.884317 408.75342 
M 626.884317 408.75342 
L 631.884317 413.75342 
" style="fill:#f0f921;stroke:#f0f921;stroke-width:1.5;"/>
    <path clip-path="url(#pdc15675605)" d="M 629.004908 328.096854 
L 634.004908 323.096854 
M 629.004908 323.096854 
L 634.004908 328.096854 
" style="fill:#f0f921;stroke:#f0f921;stroke-width:1.5;"/>
    <path clip-path="url(#pdc15675605)" d="M 631.125499 405.369191 
L 636.125499 400.369191 
M 631.125499 400.369191 
L 636.125499 405.369191 
" style="fill:#f0f921;stroke:#f0f921;stroke-width:1.5;"/>
    <path clip-path="url(#pdc15675605)" d="M 633.246091 335.754005 
L 638.246091 330.754005 
M 633.246091 330.754005 
L 638.246091 335.754005 
" style="fill:#f0f921;stroke:#f0f921;stroke-width:1.5;"/>
    <path clip-path="url(#pdc15675605)" d="M 635.366682 442.896712 
L 640.366682 437.896712 
M 635.366682 437.896712 
L 640.366682 442.896712 
" style="fill:#ed7953;stroke:#ed7953;stroke-width:1.5;"/>
    <path clip-path="url(#pdc15675605)" d="M 637.487274 401.13206 
L 642.487274 396.13206 
M 637.487274 396.13206 
L 642.487274 401.13206 
" style="fill:#f0f921;stroke:#f0f921;stroke-width:1.5;"/>
    <path clip-path="url(#pdc15675605)" d="M 639.607865 398.902339 
L 644.607865 393.902339 
M 639.607865 393.902339 
L 644.607865 398.902339 
" style="fill:#f0f921;stroke:#f0f921;stroke-width:1.5;"/>
    <path clip-path="url(#pdc15675605)" d="M 641.728457 377.466775 
L 646.728457 372.466775 
M 641.728457 372.466775 
L 646.728457 377.466775 
" style="fill:#f0f921;stroke:#f0f921;stroke-width:1.5;"/>
    <path clip-path="url(#pdc15675605)" d="M 643.849048 424.094785 
L 648.849048 419.094785 
M 643.849048 419.094785 
L 648.849048 424.094785 
" style="fill:#f0f921;stroke:#f0f921;stroke-width:1.5;"/>
    <path clip-path="url(#pdc15675605)" d="M 645.96964 447.983575 
L 650.96964 442.983575 
M 645.96964 442.983575 
L 650.96964 447.983575 
" style="fill:#9c179e;stroke:#9c179e;stroke-width:1.5;"/>
    <path clip-path="url(#pdc15675605)" d="M 648.090231 408.577129 
L 653.090231 403.577129 
M 648.090231 403.577129 
L 653.090231 408.577129 
" style="fill:#f0f921;stroke:#f0f921;stroke-width:1.5;"/>
    <path clip-path="url(#pdc15675605)" d="M 650.210823 290.125504 
L 655.210823 285.125504 
M 650.210823 285.125504 
L 655.210823 290.125504 
" style="fill:#f0f921;stroke:#f0f921;stroke-width:1.5;"/>
    <path clip-path="url(#pdc15675605)" d="M 652.331414 429.500519 
L 657.331414 424.500519 
M 652.331414 424.500519 
L 657.331414 429.500519 
" style="fill:#f0f921;stroke:#f0f921;stroke-width:1.5;"/>
    <path clip-path="url(#pdc15675605)" d="M 654.452005 439.486731 
L 659.452005 434.486731 
M 654.452005 434.486731 
L 659.452005 439.486731 
" style="fill:#f0f921;stroke:#f0f921;stroke-width:1.5;"/>
    <path clip-path="url(#pdc15675605)" d="M 656.572597 434.893723 
L 661.572597 429.893723 
M 656.572597 429.893723 
L 661.572597 434.893723 
" style="fill:#f0f921;stroke:#f0f921;stroke-width:1.5;"/>
    <path clip-path="url(#pdc15675605)" d="M 713.828566 457.524259 
L 718.828566 452.524259 
M 713.828566 452.524259 
L 718.828566 457.524259 
" style="fill:#f0f921;stroke:#f0f921;stroke-width:1.5;"/>
    <path clip-path="url(#pdc15675605)" d="M 715.949158 415.07271 
L 720.949158 410.07271 
M 715.949158 410.07271 
L 720.949158 415.07271 
" style="fill:#f0f921;stroke:#f0f921;stroke-width:1.5;"/>
    <path clip-path="url(#pdc15675605)" d="M 718.069749 379.094714 
L 723.069749 374.094714 
M 718.069749 374.094714 
L 723.069749 379.094714 
" style="fill:#f0f921;stroke:#f0f921;stroke-width:1.5;"/>
    <path clip-path="url(#pdc15675605)" d="M 720.19034 438.608339 
L 725.19034 433.608339 
M 720.19034 433.608339 
L 725.19034 438.608339 
" style="fill:#f0f921;stroke:#f0f921;stroke-width:1.5;"/>
    <path clip-path="url(#pdc15675605)" d="M 722.310932 448.017443 
L 727.310932 443.017443 
M 722.310932 443.017443 
L 727.310932 448.017443 
" style="fill:#f0f921;stroke:#f0f921;stroke-width:1.5;"/>
    <path clip-path="url(#pdc15675605)" d="M 726.552115 426.808292 
L 731.552115 421.808292 
M 726.552115 421.808292 
L 731.552115 426.808292 
" style="fill:#f0f921;stroke:#f0f921;stroke-width:1.5;"/>
    <path clip-path="url(#pdc15675605)" d="M 728.672706 378.851618 
L 733.672706 373.851618 
M 728.672706 373.851618 
L 733.672706 378.851618 
" style="fill:#f0f921;stroke:#f0f921;stroke-width:1.5;"/>
    <path clip-path="url(#pdc15675605)" d="M 730.793298 457.524259 
L 735.793298 452.524259 
M 730.793298 452.524259 
L 735.793298 457.524259 
" style="fill:#9c179e;stroke:#9c179e;stroke-width:1.5;"/>
    <path clip-path="url(#pdc15675605)" d="M 732.913889 428.980801 
L 737.913889 423.980801 
M 732.913889 423.980801 
L 737.913889 428.980801 
" style="fill:#f0f921;stroke:#f0f921;stroke-width:1.5;"/>
    <path clip-path="url(#pdc15675605)" d="M 735.034481 414.823766 
L 740.034481 409.823766 
M 735.034481 409.823766 
L 740.034481 414.823766 
" style="fill:#f0f921;stroke:#f0f921;stroke-width:1.5;"/>
    <path clip-path="url(#pdc15675605)" d="M 737.155072 423.174889 
L 742.155072 418.174889 
M 737.155072 418.174889 
L 742.155072 423.174889 
" style="fill:#f0f921;stroke:#f0f921;stroke-width:1.5;"/>
    <path clip-path="url(#pdc15675605)" d="M 739.275663 321.04764 
L 744.275663 316.04764 
M 739.275663 316.04764 
L 744.275663 321.04764 
" style="fill:#f0f921;stroke:#f0f921;stroke-width:1.5;"/>
    <path clip-path="url(#pdc15675605)" d="M 741.396255 415.190226 
L 746.396255 410.190226 
M 741.396255 410.190226 
L 746.396255 415.190226 
" style="fill:#f0f921;stroke:#f0f921;stroke-width:1.5;"/>
    <path clip-path="url(#pdc15675605)" d="M 743.516846 447.294399 
L 748.516846 442.294399 
M 743.516846 442.294399 
L 748.516846 447.294399 
" style="fill:#f0f921;stroke:#f0f921;stroke-width:1.5;"/>
    <path clip-path="url(#pdc15675605)" d="M 745.637438 444.779966 
L 750.637438 439.779966 
M 745.637438 439.779966 
L 750.637438 444.779966 
" style="fill:#f0f921;stroke:#f0f921;stroke-width:1.5;"/>
    <path clip-path="url(#pdc15675605)" d="M 747.758029 270.195208 
L 752.758029 265.195208 
M 747.758029 265.195208 
L 752.758029 270.195208 
" style="fill:#f0f921;stroke:#f0f921;stroke-width:1.5;"/>
    <path clip-path="url(#pdc15675605)" d="M 749.878621 433.128181 
L 754.878621 428.128181 
M 749.878621 428.128181 
L 754.878621 433.128181 
" style="fill:#f0f921;stroke:#f0f921;stroke-width:1.5;"/>
    <path clip-path="url(#pdc15675605)" d="M 751.999212 399.754939 
L 756.999212 394.754939 
M 751.999212 394.754939 
L 756.999212 399.754939 
" style="fill:#f0f921;stroke:#f0f921;stroke-width:1.5;"/>
    <path clip-path="url(#pdc15675605)" d="M 754.119804 447.251471 
L 759.119804 442.251471 
M 754.119804 442.251471 
L 759.119804 447.251471 
" style="fill:#9c179e;stroke:#9c179e;stroke-width:1.5;"/>
    <path clip-path="url(#pdc15675605)" d="M 756.240395 421.726435 
L 761.240395 416.726435 
M 756.240395 416.726435 
L 761.240395 421.726435 
" style="fill:#f0f921;stroke:#f0f921;stroke-width:1.5;"/>
    <path clip-path="url(#pdc15675605)" d="M 758.360987 457.524259 
L 763.360987 452.524259 
M 758.360987 452.524259 
L 763.360987 457.524259 
" style="fill:#f0f921;stroke:#f0f921;stroke-width:1.5;"/>
    <path clip-path="url(#pdc15675605)" d="M 760.481578 457.524259 
L 765.481578 452.524259 
M 760.481578 452.524259 
L 765.481578 457.524259 
" style="fill:#f0f921;stroke:#f0f921;stroke-width:1.5;"/>
    <path clip-path="url(#pdc15675605)" d="M 762.602169 425.390884 
L 767.602169 420.390884 
M 762.602169 420.390884 
L 767.602169 425.390884 
" style="fill:#f0f921;stroke:#f0f921;stroke-width:1.5;"/>
    <path clip-path="url(#pdc15675605)" d="M 764.722761 393.490511 
L 769.722761 388.490511 
M 764.722761 388.490511 
L 769.722761 393.490511 
" style="fill:#f0f921;stroke:#f0f921;stroke-width:1.5;"/>
    <path clip-path="url(#pdc15675605)" d="M 766.843352 397.946418 
L 771.843352 392.946418 
M 766.843352 392.946418 
L 771.843352 397.946418 
" style="fill:#f0f921;stroke:#f0f921;stroke-width:1.5;"/>
    <path clip-path="url(#pdc15675605)" d="M 768.963944 319.660347 
L 773.963944 314.660347 
M 768.963944 314.660347 
L 773.963944 319.660347 
" style="fill:#f0f921;stroke:#f0f921;stroke-width:1.5;"/>
    <path clip-path="url(#pdc15675605)" d="M 771.084535 382.558904 
L 776.084535 377.558904 
M 771.084535 377.558904 
L 776.084535 382.558904 
" style="fill:#f0f921;stroke:#f0f921;stroke-width:1.5;"/>
    <path clip-path="url(#pdc15675605)" d="M 773.205127 409.370814 
L 778.205127 404.370814 
M 773.205127 404.370814 
L 778.205127 409.370814 
" style="fill:#f0f921;stroke:#f0f921;stroke-width:1.5;"/>
    <path clip-path="url(#pdc15675605)" d="M 775.325718 386.472555 
L 780.325718 381.472555 
M 775.325718 381.472555 
L 780.325718 386.472555 
" style="fill:#f0f921;stroke:#f0f921;stroke-width:1.5;"/>
    <path clip-path="url(#pdc15675605)" d="M 777.44631 356.886968 
L 782.44631 351.886968 
M 777.44631 351.886968 
L 782.44631 356.886968 
" style="fill:#f0f921;stroke:#f0f921;stroke-width:1.5;"/>
    <path clip-path="url(#pdc15675605)" d="M 779.566901 34.797616 
L 784.566901 29.797616 
M 779.566901 29.797616 
L 784.566901 34.797616 
" style="fill:#f0f921;stroke:#f0f921;stroke-width:1.5;"/>
    <path clip-path="url(#pdc15675605)" d="M 781.687493 457.524259 
L 786.687493 452.524259 
M 781.687493 452.524259 
L 786.687493 457.524259 
" style="fill:#f0f921;stroke:#f0f921;stroke-width:1.5;"/>
    <path clip-path="url(#pdc15675605)" d="M 783.808084 457.524259 
L 788.808084 452.524259 
M 783.808084 452.524259 
L 788.808084 457.524259 
" style="fill:#f0f921;stroke:#f0f921;stroke-width:1.5;"/>
    <path clip-path="url(#pdc15675605)" d="M 785.928675 315.938325 
L 790.928675 310.938325 
M 785.928675 310.938325 
L 790.928675 315.938325 
" style="fill:#f0f921;stroke:#f0f921;stroke-width:1.5;"/>
    <path clip-path="url(#pdc15675605)" d="M 788.049267 422.618577 
L 793.049267 417.618577 
M 788.049267 417.618577 
L 793.049267 422.618577 
" style="fill:#f0f921;stroke:#f0f921;stroke-width:1.5;"/>
    <path clip-path="url(#pdc15675605)" d="M 790.169858 441.299111 
L 795.169858 436.299111 
M 790.169858 436.299111 
L 795.169858 441.299111 
" style="fill:#f0f921;stroke:#f0f921;stroke-width:1.5;"/>
    <path clip-path="url(#pdc15675605)" d="M 792.29045 423.361923 
L 797.29045 418.361923 
M 792.29045 418.361923 
L 797.29045 423.361923 
" style="fill:#f0f921;stroke:#f0f921;stroke-width:1.5;"/>
    <path clip-path="url(#pdc15675605)" d="M 794.411041 441.02449 
L 799.411041 436.02449 
M 794.411041 436.02449 
L 799.411041 441.02449 
" style="fill:#f0f921;stroke:#f0f921;stroke-width:1.5;"/>
    <path clip-path="url(#pdc15675605)" d="M 796.531633 439.142891 
L 801.531633 434.142891 
M 796.531633 434.142891 
L 801.531633 439.142891 
" style="fill:#f0f921;stroke:#f0f921;stroke-width:1.5;"/>
    <path clip-path="url(#pdc15675605)" d="M 798.652224 384.30222 
L 803.652224 379.30222 
M 798.652224 379.30222 
L 803.652224 384.30222 
" style="fill:#f0f921;stroke:#f0f921;stroke-width:1.5;"/>
    <path clip-path="url(#pdc15675605)" d="M 802.893407 355.929281 
L 807.893407 350.929281 
M 802.893407 350.929281 
L 807.893407 355.929281 
" style="fill:#f0f921;stroke:#f0f921;stroke-width:1.5;"/>
    <path clip-path="url(#pdc15675605)" d="M 805.013998 457.524259 
L 810.013998 452.524259 
M 805.013998 452.524259 
L 810.013998 457.524259 
" style="fill:#f0f921;stroke:#f0f921;stroke-width:1.5;"/>
    <path clip-path="url(#pdc15675605)" d="M 807.13459 439.24963 
L 812.13459 434.24963 
M 807.13459 434.24963 
L 812.13459 439.24963 
" style="fill:#f0f921;stroke:#f0f921;stroke-width:1.5;"/>
    <path clip-path="url(#pdc15675605)" d="M 809.255181 457.524259 
L 814.255181 452.524259 
M 809.255181 452.524259 
L 814.255181 457.524259 
" style="fill:#f0f921;stroke:#f0f921;stroke-width:1.5;"/>
    <path clip-path="url(#pdc15675605)" d="M 811.375773 457.524259 
L 816.375773 452.524259 
M 811.375773 452.524259 
L 816.375773 457.524259 
" style="fill:#f0f921;stroke:#f0f921;stroke-width:1.5;"/>
    <path clip-path="url(#pdc15675605)" d="M 815.616956 428.619345 
L 820.616956 423.619345 
M 815.616956 423.619345 
L 820.616956 428.619345 
" style="fill:#f0f921;stroke:#f0f921;stroke-width:1.5;"/>
    <path clip-path="url(#pdc15675605)" d="M 817.737547 430.848627 
L 822.737547 425.848627 
M 817.737547 425.848627 
L 822.737547 430.848627 
" style="fill:#f0f921;stroke:#f0f921;stroke-width:1.5;"/>
    <path clip-path="url(#pdc15675605)" d="M 819.858139 457.524259 
L 824.858139 452.524259 
M 819.858139 452.524259 
L 824.858139 457.524259 
" style="fill:#f0f921;stroke:#f0f921;stroke-width:1.5;"/>
    <path clip-path="url(#pdc15675605)" d="M 824.099322 417.053533 
L 829.099322 412.053533 
M 824.099322 412.053533 
L 829.099322 417.053533 
" style="fill:#f0f921;stroke:#f0f921;stroke-width:1.5;"/>
    <path clip-path="url(#pdc15675605)" d="M 826.219913 428.463584 
L 831.219913 423.463584 
M 826.219913 423.463584 
L 831.219913 428.463584 
" style="fill:#f0f921;stroke:#f0f921;stroke-width:1.5;"/>
    <path clip-path="url(#pdc15675605)" d="M 828.340504 404.746643 
L 833.340504 399.746643 
M 828.340504 399.746643 
L 833.340504 404.746643 
" style="fill:#f0f921;stroke:#f0f921;stroke-width:1.5;"/>
    <path clip-path="url(#pdc15675605)" d="M 830.461096 318.683747 
L 835.461096 313.683747 
M 830.461096 313.683747 
L 835.461096 318.683747 
" style="fill:#f0f921;stroke:#f0f921;stroke-width:1.5;"/>
    <path clip-path="url(#pdc15675605)" d="M 832.581687 457.524259 
L 837.581687 452.524259 
M 832.581687 452.524259 
L 837.581687 457.524259 
" style="fill:#f0f921;stroke:#f0f921;stroke-width:1.5;"/>
    <path clip-path="url(#pdc15675605)" d="M 834.702279 419.818458 
L 839.702279 414.818458 
M 834.702279 414.818458 
L 839.702279 419.818458 
" style="fill:#f0f921;stroke:#f0f921;stroke-width:1.5;"/>
    <path clip-path="url(#pdc15675605)" d="M 836.82287 457.524259 
L 841.82287 452.524259 
M 836.82287 452.524259 
L 841.82287 457.524259 
" style="fill:#f0f921;stroke:#f0f921;stroke-width:1.5;"/>
    <path clip-path="url(#pdc15675605)" d="M 838.943462 384.005227 
L 843.943462 379.005227 
M 838.943462 379.005227 
L 843.943462 384.005227 
" style="fill:#f0f921;stroke:#f0f921;stroke-width:1.5;"/>
    <path clip-path="url(#pdc15675605)" d="M 841.064053 322.91322 
L 846.064053 317.91322 
M 841.064053 317.91322 
L 846.064053 322.91322 
" style="fill:#f0f921;stroke:#f0f921;stroke-width:1.5;"/>
    <path clip-path="url(#pdc15675605)" d="M 843.184645 411.121819 
L 848.184645 406.121819 
M 843.184645 406.121819 
L 848.184645 411.121819 
" style="fill:#f0f921;stroke:#f0f921;stroke-width:1.5;"/>
    <path clip-path="url(#pdc15675605)" d="M 845.305236 433.516013 
L 850.305236 428.516013 
M 845.305236 428.516013 
L 850.305236 433.516013 
" style="fill:#f0f921;stroke:#f0f921;stroke-width:1.5;"/>
    <path clip-path="url(#pdc15675605)" d="M 847.425828 442.467852 
L 852.425828 437.467852 
M 847.425828 437.467852 
L 852.425828 442.467852 
" style="fill:#f0f921;stroke:#f0f921;stroke-width:1.5;"/>
    <path clip-path="url(#pdc15675605)" d="M 849.546419 432.663112 
L 854.546419 427.663112 
M 849.546419 427.663112 
L 854.546419 432.663112 
" style="fill:#f0f921;stroke:#f0f921;stroke-width:1.5;"/>
    <path clip-path="url(#pdc15675605)" d="M 851.66701 436.027722 
L 856.66701 431.027722 
M 851.66701 431.027722 
L 856.66701 436.027722 
" style="fill:#f0f921;stroke:#f0f921;stroke-width:1.5;"/>
    <path clip-path="url(#pdc15675605)" d="M 853.787602 417.876295 
L 858.787602 412.876295 
M 853.787602 412.876295 
L 858.787602 417.876295 
" style="fill:#f0f921;stroke:#f0f921;stroke-width:1.5;"/>
    <path clip-path="url(#pdc15675605)" d="M 855.908193 457.524259 
L 860.908193 452.524259 
M 855.908193 452.524259 
L 860.908193 457.524259 
" style="fill:#f0f921;stroke:#f0f921;stroke-width:1.5;"/>
    <path clip-path="url(#pdc15675605)" d="M 858.028785 393.690026 
L 863.028785 388.690026 
M 858.028785 388.690026 
L 863.028785 393.690026 
" style="fill:#f0f921;stroke:#f0f921;stroke-width:1.5;"/>
    <path clip-path="url(#pdc15675605)" d="M 860.149376 457.524259 
L 865.149376 452.524259 
M 860.149376 452.524259 
L 865.149376 457.524259 
" style="fill:#9c179e;stroke:#9c179e;stroke-width:1.5;"/>
    <path clip-path="url(#pdc15675605)" d="M 862.269968 422.118392 
L 867.269968 417.118392 
M 862.269968 417.118392 
L 867.269968 422.118392 
" style="fill:#f0f921;stroke:#f0f921;stroke-width:1.5;"/>
    <path clip-path="url(#pdc15675605)" d="M 864.390559 457.524259 
L 869.390559 452.524259 
M 864.390559 452.524259 
L 869.390559 457.524259 
" style="fill:#f0f921;stroke:#f0f921;stroke-width:1.5;"/>
    <path clip-path="url(#pdc15675605)" d="M 866.511151 409.861186 
L 871.511151 404.861186 
M 866.511151 404.861186 
L 871.511151 409.861186 
" style="fill:#f0f921;stroke:#f0f921;stroke-width:1.5;"/>
    <path clip-path="url(#pdc15675605)" d="M 868.631742 399.305751 
L 873.631742 394.305751 
M 868.631742 394.305751 
L 873.631742 399.305751 
" style="fill:#f0f921;stroke:#f0f921;stroke-width:1.5;"/>
    <path clip-path="url(#pdc15675605)" d="M 870.752333 406.20965 
L 875.752333 401.20965 
M 870.752333 401.20965 
L 875.752333 406.20965 
" style="fill:#f0f921;stroke:#f0f921;stroke-width:1.5;"/>
    <path clip-path="url(#pdc15675605)" d="M 872.872925 457.524259 
L 877.872925 452.524259 
M 872.872925 452.524259 
L 877.872925 457.524259 
" style="fill:#9c179e;stroke:#9c179e;stroke-width:1.5;"/>
    <path clip-path="url(#pdc15675605)" d="M 874.993516 386.318766 
L 879.993516 381.318766 
M 874.993516 381.318766 
L 879.993516 386.318766 
" style="fill:#f0f921;stroke:#f0f921;stroke-width:1.5;"/>
    <path clip-path="url(#pdc15675605)" d="M 877.114108 447.611047 
L 882.114108 442.611047 
M 877.114108 442.611047 
L 882.114108 447.611047 
" style="fill:#f0f921;stroke:#f0f921;stroke-width:1.5;"/>
    <path clip-path="url(#pdc15675605)" d="M 879.234699 425.742844 
L 884.234699 420.742844 
M 879.234699 420.742844 
L 884.234699 425.742844 
" style="fill:#f0f921;stroke:#f0f921;stroke-width:1.5;"/>
    <path clip-path="url(#pdc15675605)" d="M 881.355291 426.971978 
L 886.355291 421.971978 
M 881.355291 421.971978 
L 886.355291 426.971978 
" style="fill:#f0f921;stroke:#f0f921;stroke-width:1.5;"/>
    <path clip-path="url(#pdc15675605)" d="M 883.475882 439.821325 
L 888.475882 434.821325 
M 883.475882 434.821325 
L 888.475882 439.821325 
" style="fill:#f0f921;stroke:#f0f921;stroke-width:1.5;"/>
    <path clip-path="url(#pdc15675605)" d="M 885.596474 365.074447 
L 890.596474 360.074447 
M 885.596474 360.074447 
L 890.596474 365.074447 
" style="fill:#f0f921;stroke:#f0f921;stroke-width:1.5;"/>
    <path clip-path="url(#pdc15675605)" d="M 887.717065 457.524259 
L 892.717065 452.524259 
M 887.717065 452.524259 
L 892.717065 457.524259 
" style="fill:#0d0887;stroke:#0d0887;stroke-width:1.5;"/>
    <path clip-path="url(#pdc15675605)" d="M 889.837657 437.114448 
L 894.837657 432.114448 
M 889.837657 432.114448 
L 894.837657 437.114448 
" style="fill:#f0f921;stroke:#f0f921;stroke-width:1.5;"/>
    <path clip-path="url(#pdc15675605)" d="M 891.958248 400.22148 
L 896.958248 395.22148 
M 891.958248 395.22148 
L 896.958248 400.22148 
" style="fill:#f0f921;stroke:#f0f921;stroke-width:1.5;"/>
    <path clip-path="url(#pdc15675605)" d="M 894.078839 444.867288 
L 899.078839 439.867288 
M 894.078839 439.867288 
L 899.078839 444.867288 
" style="fill:#f0f921;stroke:#f0f921;stroke-width:1.5;"/>
    <path clip-path="url(#pdc15675605)" d="M 896.199431 457.524259 
L 901.199431 452.524259 
M 896.199431 452.524259 
L 901.199431 457.524259 
" style="fill:#9c179e;stroke:#9c179e;stroke-width:1.5;"/>
    <path clip-path="url(#pdc15675605)" d="M 898.320022 237.804882 
L 903.320022 232.804882 
M 898.320022 232.804882 
L 903.320022 237.804882 
" style="fill:#f0f921;stroke:#f0f921;stroke-width:1.5;"/>
    <path clip-path="url(#pdc15675605)" d="M 900.440614 457.524259 
L 905.440614 452.524259 
M 900.440614 452.524259 
L 905.440614 457.524259 
" style="fill:#9c179e;stroke:#9c179e;stroke-width:1.5;"/>
    <path clip-path="url(#pdc15675605)" d="M 902.561205 427.093786 
L 907.561205 422.093786 
M 902.561205 422.093786 
L 907.561205 427.093786 
" style="fill:#f0f921;stroke:#f0f921;stroke-width:1.5;"/>
    <path clip-path="url(#pdc15675605)" d="M 904.681797 457.524259 
L 909.681797 452.524259 
M 904.681797 452.524259 
L 909.681797 457.524259 
" style="fill:#9c179e;stroke:#9c179e;stroke-width:1.5;"/>
    <path clip-path="url(#pdc15675605)" d="M 906.802388 437.598639 
L 911.802388 432.598639 
M 906.802388 432.598639 
L 911.802388 437.598639 
" style="fill:#f0f921;stroke:#f0f921;stroke-width:1.5;"/>
    <path clip-path="url(#pdc15675605)" d="M 908.92298 407.092532 
L 913.92298 402.092532 
M 908.92298 402.092532 
L 913.92298 407.092532 
" style="fill:#f0f921;stroke:#f0f921;stroke-width:1.5;"/>
    <path clip-path="url(#pdc15675605)" d="M 911.043571 403.45509 
L 916.043571 398.45509 
M 911.043571 398.45509 
L 916.043571 403.45509 
" style="fill:#f0f921;stroke:#f0f921;stroke-width:1.5;"/>
    <path clip-path="url(#pdc15675605)" d="M 913.164162 428.218157 
L 918.164162 423.218157 
M 913.164162 423.218157 
L 918.164162 428.218157 
" style="fill:#f0f921;stroke:#f0f921;stroke-width:1.5;"/>
    <path clip-path="url(#pdc15675605)" d="M 917.405345 416.222023 
L 922.405345 411.222023 
M 917.405345 411.222023 
L 922.405345 416.222023 
" style="fill:#f0f921;stroke:#f0f921;stroke-width:1.5;"/>
    <path clip-path="url(#pdc15675605)" d="M 921.646528 408.22161 
L 926.646528 403.22161 
M 921.646528 403.22161 
L 926.646528 408.22161 
" style="fill:#f0f921;stroke:#f0f921;stroke-width:1.5;"/>
    <path clip-path="url(#pdc15675605)" d="M 923.76712 413.203983 
L 928.76712 408.203983 
M 923.76712 408.203983 
L 928.76712 413.203983 
" style="fill:#f0f921;stroke:#f0f921;stroke-width:1.5;"/>
    <path clip-path="url(#pdc15675605)" d="M 928.008303 403.169128 
L 933.008303 398.169128 
M 928.008303 398.169128 
L 933.008303 403.169128 
" style="fill:#f0f921;stroke:#f0f921;stroke-width:1.5;"/>
    <path clip-path="url(#pdc15675605)" d="M 930.128894 440.514877 
L 935.128894 435.514877 
M 930.128894 435.514877 
L 935.128894 440.514877 
" style="fill:#f0f921;stroke:#f0f921;stroke-width:1.5;"/>
    <path clip-path="url(#pdc15675605)" d="M 932.249486 418.09228 
L 937.249486 413.09228 
M 932.249486 413.09228 
L 937.249486 418.09228 
" style="fill:#f0f921;stroke:#f0f921;stroke-width:1.5;"/>
    <path clip-path="url(#pdc15675605)" d="M 934.370077 457.524259 
L 939.370077 452.524259 
M 934.370077 452.524259 
L 939.370077 457.524259 
" style="fill:#f0f921;stroke:#f0f921;stroke-width:1.5;"/>
    <path clip-path="url(#pdc15675605)" d="M 936.490668 431.484992 
L 941.490668 426.484992 
M 936.490668 426.484992 
L 941.490668 431.484992 
" style="fill:#f0f921;stroke:#f0f921;stroke-width:1.5;"/>
    <path clip-path="url(#pdc15675605)" d="M 938.61126 442.174904 
L 943.61126 437.174904 
M 938.61126 437.174904 
L 943.61126 442.174904 
" style="fill:#f0f921;stroke:#f0f921;stroke-width:1.5;"/>
    <path clip-path="url(#pdc15675605)" d="M 940.731851 293.850605 
L 945.731851 288.850605 
M 940.731851 288.850605 
L 945.731851 293.850605 
" style="fill:#f0f921;stroke:#f0f921;stroke-width:1.5;"/>
    <path clip-path="url(#pdc15675605)" d="M 942.852443 439.821325 
L 947.852443 434.821325 
M 942.852443 434.821325 
L 947.852443 439.821325 
" style="fill:#f0f921;stroke:#f0f921;stroke-width:1.5;"/>
    <path clip-path="url(#pdc15675605)" d="M 947.093626 430.216994 
L 952.093626 425.216994 
M 947.093626 425.216994 
L 952.093626 430.216994 
" style="fill:#f0f921;stroke:#f0f921;stroke-width:1.5;"/>
    <path clip-path="url(#pdc15675605)" d="M 949.214217 457.524259 
L 954.214217 452.524259 
M 949.214217 452.524259 
L 954.214217 457.524259 
" style="fill:#f0f921;stroke:#f0f921;stroke-width:1.5;"/>
    <path clip-path="url(#pdc15675605)" d="M 957.696583 457.524259 
L 962.696583 452.524259 
M 957.696583 452.524259 
L 962.696583 457.524259 
" style="fill:#f0f921;stroke:#f0f921;stroke-width:1.5;"/>
    <path clip-path="url(#pdc15675605)" d="M 959.817174 457.524259 
L 964.817174 452.524259 
M 959.817174 452.524259 
L 964.817174 457.524259 
" style="fill:#f0f921;stroke:#f0f921;stroke-width:1.5;"/>
    <path clip-path="url(#pdc15675605)" d="M 961.937766 420.964955 
L 966.937766 415.964955 
M 961.937766 415.964955 
L 966.937766 420.964955 
" style="fill:#f0f921;stroke:#f0f921;stroke-width:1.5;"/>
    <path clip-path="url(#pdc15675605)" d="M 964.058357 386.712525 
L 969.058357 381.712525 
M 964.058357 381.712525 
L 969.058357 386.712525 
" style="fill:#f0f921;stroke:#f0f921;stroke-width:1.5;"/>
    <path clip-path="url(#pdc15675605)" d="M 966.178949 442.758218 
L 971.178949 437.758218 
M 966.178949 437.758218 
L 971.178949 442.758218 
" style="fill:#f0f921;stroke:#f0f921;stroke-width:1.5;"/>
    <path clip-path="url(#pdc15675605)" d="M 968.29954 433.405695 
L 973.29954 428.405695 
M 968.29954 428.405695 
L 973.29954 433.405695 
" style="fill:#f0f921;stroke:#f0f921;stroke-width:1.5;"/>
    <path clip-path="url(#pdc15675605)" d="M 970.420132 428.290385 
L 975.420132 423.290385 
M 970.420132 423.290385 
L 975.420132 428.290385 
" style="fill:#f0f921;stroke:#f0f921;stroke-width:1.5;"/>
    <path clip-path="url(#pdc15675605)" d="M 972.540723 429.382434 
L 977.540723 424.382434 
M 972.540723 424.382434 
L 977.540723 429.382434 
" style="fill:#f0f921;stroke:#f0f921;stroke-width:1.5;"/>
    <path clip-path="url(#pdc15675605)" d="M 974.661315 457.524259 
L 979.661315 452.524259 
M 974.661315 452.524259 
L 979.661315 457.524259 
" style="fill:#f0f921;stroke:#f0f921;stroke-width:1.5;"/>
    <path clip-path="url(#pdc15675605)" d="M 976.781906 418.499562 
L 981.781906 413.499562 
M 976.781906 413.499562 
L 981.781906 418.499562 
" style="fill:#f0f921;stroke:#f0f921;stroke-width:1.5;"/>
    <path clip-path="url(#pdc15675605)" d="M 978.902497 421.916487 
L 983.902497 416.916487 
M 978.902497 416.916487 
L 983.902497 421.916487 
" style="fill:#f0f921;stroke:#f0f921;stroke-width:1.5;"/>
    <path clip-path="url(#pdc15675605)" d="M 981.023089 457.524259 
L 986.023089 452.524259 
M 981.023089 452.524259 
L 986.023089 457.524259 
" style="fill:#f0f921;stroke:#f0f921;stroke-width:1.5;"/>
    <path clip-path="url(#pdc15675605)" d="M 983.14368 421.731201 
L 988.14368 416.731201 
M 983.14368 416.731201 
L 988.14368 421.731201 
" style="fill:#f0f921;stroke:#f0f921;stroke-width:1.5;"/>
    <path clip-path="url(#pdc15675605)" d="M 985.264272 457.524259 
L 990.264272 452.524259 
M 985.264272 452.524259 
L 990.264272 457.524259 
" style="fill:#f0f921;stroke:#f0f921;stroke-width:1.5;"/>
    <path clip-path="url(#pdc15675605)" d="M 987.384863 444.054942 
L 992.384863 439.054942 
M 987.384863 439.054942 
L 992.384863 444.054942 
" style="fill:#f0f921;stroke:#f0f921;stroke-width:1.5;"/>
    <path clip-path="url(#pdc15675605)" d="M 989.505455 457.524259 
L 994.505455 452.524259 
M 989.505455 452.524259 
L 994.505455 457.524259 
" style="fill:#f0f921;stroke:#f0f921;stroke-width:1.5;"/>
    <path clip-path="url(#pdc15675605)" d="M 991.626046 449.239215 
L 996.626046 444.239215 
M 991.626046 444.239215 
L 996.626046 449.239215 
" style="fill:#ed7953;stroke:#ed7953;stroke-width:1.5;"/>
    <path clip-path="url(#pdc15675605)" d="M 995.867229 457.524259 
L 1000.867229 452.524259 
M 995.867229 452.524259 
L 1000.867229 457.524259 
" style="fill:#f0f921;stroke:#f0f921;stroke-width:1.5;"/>
    <path clip-path="url(#pdc15675605)" d="M 997.987821 457.524259 
L 1002.987821 452.524259 
M 997.987821 452.524259 
L 1002.987821 457.524259 
" style="fill:#f0f921;stroke:#f0f921;stroke-width:1.5;"/>
    <path clip-path="url(#pdc15675605)" d="M 1004.349595 435.111981 
L 1009.349595 430.111981 
M 1004.349595 430.111981 
L 1009.349595 435.111981 
" style="fill:#f0f921;stroke:#f0f921;stroke-width:1.5;"/>
    <path clip-path="url(#pdc15675605)" d="M 1006.470186 457.524259 
L 1011.470186 452.524259 
M 1006.470186 452.524259 
L 1011.470186 457.524259 
" style="fill:#f0f921;stroke:#f0f921;stroke-width:1.5;"/>
    <path clip-path="url(#pdc15675605)" d="M 1008.590778 443.847671 
L 1013.590778 438.847671 
M 1008.590778 438.847671 
L 1013.590778 443.847671 
" style="fill:#f0f921;stroke:#f0f921;stroke-width:1.5;"/>
    <path clip-path="url(#pdc15675605)" d="M 1014.952552 457.524259 
L 1019.952552 452.524259 
M 1014.952552 452.524259 
L 1019.952552 457.524259 
" style="fill:#f0f921;stroke:#f0f921;stroke-width:1.5;"/>
    <path clip-path="url(#pdc15675605)" d="M 1019.193735 387.283896 
L 1024.193735 382.283896 
M 1019.193735 382.283896 
L 1024.193735 387.283896 
" style="fill:#f0f921;stroke:#f0f921;stroke-width:1.5;"/>
   </g>
   <g id="matplotlib.axis_1">
    <g id="xtick_1">
     <g id="line2d_1">
      <defs>
       <path d="M 0 0 
L 0 3.5 
" id="m5498e28f9e" style="stroke:#000000;stroke-width:0.8;"/>
      </defs>
      <g>
       <use style="stroke:#000000;stroke-width:0.8;" x="58.945216" xlink:href="#m5498e28f9e" y="476.521875"/>
      </g>
     </g>
     <g id="text_1">
      <!-- 0 -->
      <defs>
       <path d="M 31.78125 66.40625 
Q 24.171875 66.40625 20.328125 58.90625 
Q 16.5 51.421875 16.5 36.375 
Q 16.5 21.390625 20.328125 13.890625 
Q 24.171875 6.390625 31.78125 6.390625 
Q 39.453125 6.390625 43.28125 13.890625 
Q 47.125 21.390625 47.125 36.375 
Q 47.125 51.421875 43.28125 58.90625 
Q 39.453125 66.40625 31.78125 66.40625 
z
M 31.78125 74.21875 
Q 44.046875 74.21875 50.515625 64.515625 
Q 56.984375 54.828125 56.984375 36.375 
Q 56.984375 17.96875 50.515625 8.265625 
Q 44.046875 -1.421875 31.78125 -1.421875 
Q 19.53125 -1.421875 13.0625 8.265625 
Q 6.59375 17.96875 6.59375 36.375 
Q 6.59375 54.828125 13.0625 64.515625 
Q 19.53125 74.21875 31.78125 74.21875 
z
" id="DejaVuSans-48"/>
      </defs>
      <g transform="translate(55.763966 491.120313)scale(0.1 -0.1)">
       <use xlink:href="#DejaVuSans-48"/>
      </g>
     </g>
    </g>
    <g id="xtick_2">
     <g id="line2d_2">
      <g>
       <use style="stroke:#000000;stroke-width:0.8;" x="271.004361" xlink:href="#m5498e28f9e" y="476.521875"/>
      </g>
     </g>
     <g id="text_2">
      <!-- 100 -->
      <defs>
       <path d="M 12.40625 8.296875 
L 28.515625 8.296875 
L 28.515625 63.921875 
L 10.984375 60.40625 
L 10.984375 69.390625 
L 28.421875 72.90625 
L 38.28125 72.90625 
L 38.28125 8.296875 
L 54.390625 8.296875 
L 54.390625 0 
L 12.40625 0 
z
" id="DejaVuSans-49"/>
      </defs>
      <g transform="translate(261.460611 491.120313)scale(0.1 -0.1)">
       <use xlink:href="#DejaVuSans-49"/>
       <use x="63.623047" xlink:href="#DejaVuSans-48"/>
       <use x="127.246094" xlink:href="#DejaVuSans-48"/>
      </g>
     </g>
    </g>
    <g id="xtick_3">
     <g id="line2d_3">
      <g>
       <use style="stroke:#000000;stroke-width:0.8;" x="483.063506" xlink:href="#m5498e28f9e" y="476.521875"/>
      </g>
     </g>
     <g id="text_3">
      <!-- 200 -->
      <defs>
       <path d="M 19.1875 8.296875 
L 53.609375 8.296875 
L 53.609375 0 
L 7.328125 0 
L 7.328125 8.296875 
Q 12.9375 14.109375 22.625 23.890625 
Q 32.328125 33.6875 34.8125 36.53125 
Q 39.546875 41.84375 41.421875 45.53125 
Q 43.3125 49.21875 43.3125 52.78125 
Q 43.3125 58.59375 39.234375 62.25 
Q 35.15625 65.921875 28.609375 65.921875 
Q 23.96875 65.921875 18.8125 64.3125 
Q 13.671875 62.703125 7.8125 59.421875 
L 7.8125 69.390625 
Q 13.765625 71.78125 18.9375 73 
Q 24.125 74.21875 28.421875 74.21875 
Q 39.75 74.21875 46.484375 68.546875 
Q 53.21875 62.890625 53.21875 53.421875 
Q 53.21875 48.921875 51.53125 44.890625 
Q 49.859375 40.875 45.40625 35.40625 
Q 44.1875 33.984375 37.640625 27.21875 
Q 31.109375 20.453125 19.1875 8.296875 
z
" id="DejaVuSans-50"/>
      </defs>
      <g transform="translate(473.519756 491.120313)scale(0.1 -0.1)">
       <use xlink:href="#DejaVuSans-50"/>
       <use x="63.623047" xlink:href="#DejaVuSans-48"/>
       <use x="127.246094" xlink:href="#DejaVuSans-48"/>
      </g>
     </g>
    </g>
    <g id="xtick_4">
     <g id="line2d_4">
      <g>
       <use style="stroke:#000000;stroke-width:0.8;" x="695.122652" xlink:href="#m5498e28f9e" y="476.521875"/>
      </g>
     </g>
     <g id="text_4">
      <!-- 300 -->
      <defs>
       <path d="M 40.578125 39.3125 
Q 47.65625 37.796875 51.625 33 
Q 55.609375 28.21875 55.609375 21.1875 
Q 55.609375 10.40625 48.1875 4.484375 
Q 40.765625 -1.421875 27.09375 -1.421875 
Q 22.515625 -1.421875 17.65625 -0.515625 
Q 12.796875 0.390625 7.625 2.203125 
L 7.625 11.71875 
Q 11.71875 9.328125 16.59375 8.109375 
Q 21.484375 6.890625 26.8125 6.890625 
Q 36.078125 6.890625 40.9375 10.546875 
Q 45.796875 14.203125 45.796875 21.1875 
Q 45.796875 27.640625 41.28125 31.265625 
Q 36.765625 34.90625 28.71875 34.90625 
L 20.21875 34.90625 
L 20.21875 43.015625 
L 29.109375 43.015625 
Q 36.375 43.015625 40.234375 45.921875 
Q 44.09375 48.828125 44.09375 54.296875 
Q 44.09375 59.90625 40.109375 62.90625 
Q 36.140625 65.921875 28.71875 65.921875 
Q 24.65625 65.921875 20.015625 65.03125 
Q 15.375 64.15625 9.8125 62.3125 
L 9.8125 71.09375 
Q 15.4375 72.65625 20.34375 73.4375 
Q 25.25 74.21875 29.59375 74.21875 
Q 40.828125 74.21875 47.359375 69.109375 
Q 53.90625 64.015625 53.90625 55.328125 
Q 53.90625 49.265625 50.4375 45.09375 
Q 46.96875 40.921875 40.578125 39.3125 
z
" id="DejaVuSans-51"/>
      </defs>
      <g transform="translate(685.578902 491.120313)scale(0.1 -0.1)">
       <use xlink:href="#DejaVuSans-51"/>
       <use x="63.623047" xlink:href="#DejaVuSans-48"/>
       <use x="127.246094" xlink:href="#DejaVuSans-48"/>
      </g>
     </g>
    </g>
    <g id="xtick_5">
     <g id="line2d_5">
      <g>
       <use style="stroke:#000000;stroke-width:0.8;" x="907.181797" xlink:href="#m5498e28f9e" y="476.521875"/>
      </g>
     </g>
     <g id="text_5">
      <!-- 400 -->
      <defs>
       <path d="M 37.796875 64.3125 
L 12.890625 25.390625 
L 37.796875 25.390625 
z
M 35.203125 72.90625 
L 47.609375 72.90625 
L 47.609375 25.390625 
L 58.015625 25.390625 
L 58.015625 17.1875 
L 47.609375 17.1875 
L 47.609375 0 
L 37.796875 0 
L 37.796875 17.1875 
L 4.890625 17.1875 
L 4.890625 26.703125 
z
" id="DejaVuSans-52"/>
      </defs>
      <g transform="translate(897.638047 491.120313)scale(0.1 -0.1)">
       <use xlink:href="#DejaVuSans-52"/>
       <use x="63.623047" xlink:href="#DejaVuSans-48"/>
       <use x="127.246094" xlink:href="#DejaVuSans-48"/>
      </g>
     </g>
    </g>
   </g>
   <g id="matplotlib.axis_2">
    <g id="ytick_1">
     <g id="line2d_6">
      <defs>
       <path d="M 0 0 
L -3.5 0 
" id="me3036050dd" style="stroke:#000000;stroke-width:0.8;"/>
      </defs>
      <g>
       <use style="stroke:#000000;stroke-width:0.8;" x="24.1625" xlink:href="#me3036050dd" y="455.024259"/>
      </g>
     </g>
     <g id="text_6">
      <!-- 0 -->
      <g transform="translate(10.8 458.823477)scale(0.1 -0.1)">
       <use xlink:href="#DejaVuSans-48"/>
      </g>
     </g>
    </g>
    <g id="ytick_2">
     <g id="line2d_7">
      <g>
       <use style="stroke:#000000;stroke-width:0.8;" x="24.1625" xlink:href="#me3036050dd" y="384.212525"/>
      </g>
     </g>
     <g id="text_7">
      <!-- 1 -->
      <g transform="translate(10.8 388.011744)scale(0.1 -0.1)">
       <use xlink:href="#DejaVuSans-49"/>
      </g>
     </g>
    </g>
    <g id="ytick_3">
     <g id="line2d_8">
      <g>
       <use style="stroke:#000000;stroke-width:0.8;" x="24.1625" xlink:href="#me3036050dd" y="313.400792"/>
      </g>
     </g>
     <g id="text_8">
      <!-- 2 -->
      <g transform="translate(10.8 317.200011)scale(0.1 -0.1)">
       <use xlink:href="#DejaVuSans-50"/>
      </g>
     </g>
    </g>
    <g id="ytick_4">
     <g id="line2d_9">
      <g>
       <use style="stroke:#000000;stroke-width:0.8;" x="24.1625" xlink:href="#me3036050dd" y="242.589058"/>
      </g>
     </g>
     <g id="text_9">
      <!-- 3 -->
      <g transform="translate(10.8 246.388277)scale(0.1 -0.1)">
       <use xlink:href="#DejaVuSans-51"/>
      </g>
     </g>
    </g>
    <g id="ytick_5">
     <g id="line2d_10">
      <g>
       <use style="stroke:#000000;stroke-width:0.8;" x="24.1625" xlink:href="#me3036050dd" y="171.777325"/>
      </g>
     </g>
     <g id="text_10">
      <!-- 4 -->
      <g transform="translate(10.8 175.576544)scale(0.1 -0.1)">
       <use xlink:href="#DejaVuSans-52"/>
      </g>
     </g>
    </g>
    <g id="ytick_6">
     <g id="line2d_11">
      <g>
       <use style="stroke:#000000;stroke-width:0.8;" x="24.1625" xlink:href="#me3036050dd" y="100.965592"/>
      </g>
     </g>
     <g id="text_11">
      <!-- 5 -->
      <defs>
       <path d="M 10.796875 72.90625 
L 49.515625 72.90625 
L 49.515625 64.59375 
L 19.828125 64.59375 
L 19.828125 46.734375 
Q 21.96875 47.46875 24.109375 47.828125 
Q 26.265625 48.1875 28.421875 48.1875 
Q 40.625 48.1875 47.75 41.5 
Q 54.890625 34.8125 54.890625 23.390625 
Q 54.890625 11.625 47.5625 5.09375 
Q 40.234375 -1.421875 26.90625 -1.421875 
Q 22.3125 -1.421875 17.546875 -0.640625 
Q 12.796875 0.140625 7.71875 1.703125 
L 7.71875 11.625 
Q 12.109375 9.234375 16.796875 8.0625 
Q 21.484375 6.890625 26.703125 6.890625 
Q 35.15625 6.890625 40.078125 11.328125 
Q 45.015625 15.765625 45.015625 23.390625 
Q 45.015625 31 40.078125 35.4375 
Q 35.15625 39.890625 26.703125 39.890625 
Q 22.75 39.890625 18.8125 39.015625 
Q 14.890625 38.140625 10.796875 36.28125 
z
" id="DejaVuSans-53"/>
      </defs>
      <g transform="translate(10.8 104.76481)scale(0.1 -0.1)">
       <use xlink:href="#DejaVuSans-53"/>
      </g>
     </g>
    </g>
    <g id="ytick_7">
     <g id="line2d_12">
      <g>
       <use style="stroke:#000000;stroke-width:0.8;" x="24.1625" xlink:href="#me3036050dd" y="30.153858"/>
      </g>
     </g>
     <g id="text_12">
      <!-- 6 -->
      <defs>
       <path d="M 33.015625 40.375 
Q 26.375 40.375 22.484375 35.828125 
Q 18.609375 31.296875 18.609375 23.390625 
Q 18.609375 15.53125 22.484375 10.953125 
Q 26.375 6.390625 33.015625 6.390625 
Q 39.65625 6.390625 43.53125 10.953125 
Q 47.40625 15.53125 47.40625 23.390625 
Q 47.40625 31.296875 43.53125 35.828125 
Q 39.65625 40.375 33.015625 40.375 
z
M 52.59375 71.296875 
L 52.59375 62.3125 
Q 48.875 64.0625 45.09375 64.984375 
Q 41.3125 65.921875 37.59375 65.921875 
Q 27.828125 65.921875 22.671875 59.328125 
Q 17.53125 52.734375 16.796875 39.40625 
Q 19.671875 43.65625 24.015625 45.921875 
Q 28.375 48.1875 33.59375 48.1875 
Q 44.578125 48.1875 50.953125 41.515625 
Q 57.328125 34.859375 57.328125 23.390625 
Q 57.328125 12.15625 50.6875 5.359375 
Q 44.046875 -1.421875 33.015625 -1.421875 
Q 20.359375 -1.421875 13.671875 8.265625 
Q 6.984375 17.96875 6.984375 36.375 
Q 6.984375 53.65625 15.1875 63.9375 
Q 23.390625 74.21875 37.203125 74.21875 
Q 40.921875 74.21875 44.703125 73.484375 
Q 48.484375 72.75 52.59375 71.296875 
z
" id="DejaVuSans-54"/>
      </defs>
      <g transform="translate(10.8 33.953077)scale(0.1 -0.1)">
       <use xlink:href="#DejaVuSans-54"/>
      </g>
     </g>
    </g>
   </g>
   <g id="patch_3">
    <path d="M 24.1625 476.521875 
L 24.1625 10.8 
" style="fill:none;stroke:#000000;stroke-linecap:square;stroke-linejoin:miter;stroke-width:0.8;"/>
   </g>
   <g id="patch_4">
    <path d="M 1069.2 476.521875 
L 1069.2 10.8 
" style="fill:none;stroke:#000000;stroke-linecap:square;stroke-linejoin:miter;stroke-width:0.8;"/>
   </g>
   <g id="patch_5">
    <path d="M 24.1625 476.521875 
L 1069.2 476.521875 
" style="fill:none;stroke:#000000;stroke-linecap:square;stroke-linejoin:miter;stroke-width:0.8;"/>
   </g>
   <g id="patch_6">
    <path d="M 24.1625 10.8 
L 1069.2 10.8 
" style="fill:none;stroke:#000000;stroke-linecap:square;stroke-linejoin:miter;stroke-width:0.8;"/>
   </g>
  </g>
 </g>
 <defs>
  <clipPath id="pdc15675605">
   <rect height="465.721875" width="1045.0375" x="24.1625" y="10.8"/>
  </clipPath>
 </defs>
</svg>
